<?xml version="1.0" encoding="iso-8859-1"?>
<!-- Generator: Adobe Illustrator 19.0.0, SVG Export Plug-In . SVG Version: 6.00 Build 0)  -->
<svg version="1.1" id="Layer_1" xmlns="http://www.w3.org/2000/svg" x="0px" y="0px"
     viewBox="0 0 512 512" style="enable-background:new 0 0 512 512;" xml:space="preserve">
<g>
	<g>
		<path d="M499.357,381.743c-0.136-0.068-13.821-7.064-30.49-26.976c-15.461-18.47-36.713-52.129-50.153-107.589
			c-9.146-37.742-24.438-61.49-45.452-70.586c-16.88-7.308-36.922-4.864-57.96,7.07l7.695,13.565
			c11.586-6.572,28.637-13.008,44.07-6.322c16.281,7.047,28.559,27.217,36.491,59.947c20.243,83.529,57.379,121.864,76.654,136.812
			c-8.678,3.076-16.957,3.46-24.72,1.13c-20.948-6.286-32.538-30.173-32.652-30.413l-7.047,3.338l-7.054,3.322
			c0.498,1.057,10.855,22.595,31.228,33.973c-5.717,0.887-11.358,0.649-16.882-0.751c-23.701-6.009-38.6-30.978-38.749-31.229
			l-6.732,3.935l-6.739,3.922c0.498,0.857,8.828,14.923,23.652,26.193c-7.049,1.815-13.422,1.636-19.042-0.574
			c-14.476-5.696-20.497-23.217-20.802-24.132L336.88,249.177c-2.73-19.514-12.42-37.382-27.286-50.314
			c-14.866-12.932-33.905-20.053-53.609-20.053s-38.742,7.122-53.608,20.053c-14.866,12.933-24.557,30.801-27.287,50.314
			L157.17,377.29c-1.446,3.79-7.656,18.124-20.387,23.186c-5.64,2.243-12.043,2.433-19.127,0.608
			c14.825-11.271,23.155-25.337,23.653-26.194l-13.478-7.844c-0.146,0.25-14.847,25.105-38.654,31.194
			c-5.553,1.42-11.221,1.666-16.97,0.773c20.373-11.376,30.73-32.914,31.229-33.973l-14.109-6.645
			c-0.112,0.239-11.511,24.002-32.564,30.372c-7.788,2.358-16.093,1.98-24.801-1.105c19.276-14.949,56.412-53.283,76.655-136.812
			c7.88-32.516,20.052-52.64,36.179-59.811c14.973-6.659,31.517-0.799,42.759,5.288l7.425-13.714
			c-20.539-11.12-40.083-13.132-56.521-5.823c-20.78,9.241-35.92,32.922-45,70.388c-13.44,55.461-34.692,89.12-50.153,107.589
			c-16.669,19.912-30.354,26.907-30.456,26.959L0,388.013l12.249,7.392c11.529,6.959,22.852,10.469,33.831,10.513
			c10.882,6.159,21.806,9.25,32.638,9.25c4.795,0,9.576-0.606,14.323-1.82c2.442-0.625,4.793-1.406,7.068-2.292
			c9.389,4.589,18.305,6.895,26.671,6.895c5.499,0,10.763-0.994,15.768-2.984c3.806-1.514,7.177-3.514,10.164-5.781l-10.476,74.897
			h227.503l-10.5-75.066c3.041,2.337,6.488,4.399,10.39,5.951c5.005,1.99,10.268,2.984,15.769,2.984
			c8.365,0,17.282-2.307,26.671-6.895c2.275,0.886,4.625,1.667,7.068,2.291c4.748,1.214,9.527,1.82,14.323,1.82
			c10.831,0,21.755-3.091,32.638-9.25c10.978-0.045,22.302-3.555,33.831-10.513L512,388.082L499.357,381.743z M335.291,468.489
			l-13.731-98.171l-15.445,2.16l13.43,96.011h-17.407l-6.751-48.261l-15.445,2.16l6.448,46.101h-60.503l3.976-28.424l-15.445-2.16
			l-4.278,30.584h-17.183l10.375-74.17l-15.444-2.161l-10.677,76.331h-17.048l30.373-217.151
			c4.539-32.458,32.677-56.933,65.45-56.933c32.772,0,60.91,24.476,65.45,56.933l30.373,217.151H335.291z"/>
	</g>
</g>
    <g>
	<g>
		<path d="M255.987,27.916c-47.202,0-84.176,22.246-84.176,50.644c-0.001,9.884,4.514,19.383,13.056,27.472l10.722-11.325
			c-5.43-5.141-8.184-10.575-8.184-16.146c0-8.5,6.53-16.844,18.389-23.497c13.28-7.449,31.105-11.552,50.193-11.552
			c19.087,0,36.912,4.103,50.193,11.552c11.858,6.652,18.388,14.996,18.388,23.497c0,7.132-4.684,12.935-8.613,16.547l10.553,11.481
			c8.933-8.21,13.655-17.902,13.655-28.028C340.163,50.162,303.189,27.916,255.987,27.916z"/>
	</g>
</g>
    <g>
	<g>
		<path d="M255.986,63.311c-31.263,0-56.698,25.435-56.698,56.698s25.435,56.698,56.698,56.698s56.698-25.435,56.698-56.698
			S287.25,63.311,255.986,63.311z M255.986,161.112c-22.664,0-41.103-18.439-41.103-41.103s18.439-41.103,41.103-41.103
			s41.103,18.439,41.103,41.103S278.651,161.112,255.986,161.112z"/>
	</g>
</g>
</svg>
