<?xml version="1.0" encoding="UTF-8" standalone="no"?>
<!-- Created with Inkscape (http://www.inkscape.org/) -->

<svg
        xmlns:dc="http://purl.org/dc/elements/1.1/"
        xmlns:cc="http://creativecommons.org/ns#"
        xmlns:rdf="http://www.w3.org/1999/02/22-rdf-syntax-ns#"
        xmlns:sodipodi="http://sodipodi.sourceforge.net/DTD/sodipodi-0.dtd"
        xmlns:inkscape="http://www.inkscape.org/namespaces/inkscape"
        xmlns="http://www.w3.org/2000/svg"
        width="210mm"
        height="297mm"
        viewBox="0 0 210 297"
        version="1.1"
        id="svg8"
        enable-background="new"
        inkscape:version="0.92.5 (2060ec1f9f, 2020-04-08)"
        sodipodi:docname="drawing.svg">
    <defs
            id="defs2">
        <filter
                inkscape:collect="always"
                style="color-interpolation-filters:sRGB"
                id="filter5297"
                x="-0.012972069"
                width="1.0259441"
                y="-0.01116346"
                height="1.0223269">
            <feBlend
                    inkscape:collect="always"
                    mode="multiply"
                    in2="BackgroundImage"
                    id="feBlend5301"/>
        </filter>
    </defs>
    <sodipodi:namedview
            id="base"
            pagecolor="#ffffff"
            bordercolor="#666666"
            borderopacity="1.0"
            inkscape:pageopacity="0.0"
            inkscape:pageshadow="2"
            inkscape:zoom="0.7"
            inkscape:cx="521.78633"
            inkscape:cy="830.79152"
            inkscape:document-units="mm"
            inkscape:current-layer="svgg"
            showgrid="false"
            showguides="false"
            inkscape:snap-global="false"
            inkscape:window-width="1920"
            inkscape:window-height="1080"
            inkscape:window-x="0"
            inkscape:window-y="0"
            inkscape:window-maximized="1">
        <inkscape:grid
                type="xygrid"
                id="grid3713"/>
    </sodipodi:namedview>
    <metadata
            id="metadata5">
        <rdf:RDF>
            <cc:Work
                    rdf:about="">
                <dc:format>image/svg+xml</dc:format>
                <dc:type
                        rdf:resource="http://purl.org/dc/dcmitype/StillImage"/>
                <dc:title></dc:title>
            </cc:Work>
        </rdf:RDF>
    </metadata>
    <g
            inkscape:label="Layer 1"
            inkscape:groupmode="layer"
            id="layer1">
        <g
                id="svgg"
                transform="matrix(0.73617271,0,0,0.73617271,675.14453,380.79457)"
                inkscape:label="svgg">
            <path
                    style="opacity:1;fill:#000000;fill-opacity:1;fill-rule:evenodd;stroke:none;stroke-width:0.27167538;stroke-miterlimit:4;stroke-dasharray:none;filter:url(#filter5297)"
                    d="m -763.51944,-483.33017 c -1.38244,0.0199 -2.78316,0.17308 -4.223,0.44996 -5.3,1.019 -7.8631,1.6622 -11.1331,2.7952 -2.661,0.922 -5.0197,1.55346 -8.2347,2.20346 l -2.80644,0.56929 -2.45195,-0.34536 c -3.177,-0.445 -4.5601,-0.97198 -5.9091,-2.24698 -1.258,-1.19 -1.40965,-1.21968 -1.76965,-0.35168 -0.74399,1.796 2.38604,7.17611 4.66804,8.02411 0.75,0.279 2.01372,0.35504 2.00972,0.12004 -0.009,-0.536 -0.65359,-2.44936 -1.03259,-3.06336 -1.121,-1.813 -0.65541,-2.03911 3.32659,-1.61311 2.867,0.307 4.92947,-0.0214 10.72948,-1.71138 5.90899,-1.723 11.14269,-2.76154 15.96469,-3.16654 3.45,-0.291 7.19169,1.0219 11.84769,4.1549 4.765,3.207 7.03937,5.05028 13.02137,10.55328 2.333,2.147 6.04416,6.32315 7.39516,8.32315 5.578,8.254 8.51698,13.72983 9.26798,17.26683 0.27501,1.296 0.3656,0.48097 0.1046,-0.94203 -1.554,-8.487 -7.70364,-20.25475 -13.04664,-24.96875 -0.901,-0.79499 -2.52921,-2.27911 -3.61721,-3.29711 -9.71156,-9.08887 -16.64581,-12.86137 -24.11094,-12.75392 z"
                    id="path5351"
                    inkscape:connector-curvature="0"/>
            <path
                    style="opacity:1;fill:#000000;fill-opacity:1;fill-rule:evenodd;stroke:none;stroke-width:0.27167538;stroke-miterlimit:4;stroke-dasharray:none;filter:url(#filter5297)"
                    d="m -811.86839,-481.84833 c -0.37099,-0.0462 -0.68904,0.25028 -0.86973,0.92097 -0.198,0.736 -0.1471,0.99937 0.5019,2.56637 1.133,2.738 2.48985,5.58076 3.20585,6.71776 1.027,1.63201 0.78409,0.92212 -0.72091,-2.10588 -1.717,-3.454 -1.9184,-4.56697 -0.9294,-5.14397 l 0.643,-0.37625 -0.3208,-0.77005 c -0.46912,-1.12387 -1.03294,-1.74956 -1.50991,-1.80895 z"
                    id="path5349"
                    inkscape:connector-curvature="0"/>
            <path
                    style="opacity:1;fill:#000000;fill-opacity:1;fill-rule:evenodd;stroke:none;stroke-width:0.27167538;stroke-miterlimit:4;stroke-dasharray:none;filter:url(#filter5297)"
                    d="m -742.86214,-480.58971 c -0.0216,0.009 -0.0219,0.0313 0,0.0667 0.056,0.091 0.50367,0.43786 0.99467,0.77286 7.028,4.782 12.31915,9.54265 15.37715,13.83565 0.612,0.86 1.5618,2.14196 2.1108,2.84996 3.604,4.64599 7.38103,12.98417 5.88103,12.98417 -0.77,0 -2.00164,-1.77264 -4.56064,-6.56264 -3.123,-5.845 -9.76404,-12.90658 -17.80804,-18.93258 -3.961,-2.968 -3.15822,-1.843 1.35478,1.896 7.877,6.529 12.02521,11.41532 16.93621,19.94831 3.409,5.92401 3.53078,6.37621 3.14478,11.67221 -0.674,9.233 -2.38294,15.43554 -5.63393,20.45654 -0.60901,0.941 -0.79824,1.41416 -0.69424,1.74016 0.105,0.332 -0.0175,0.61888 -0.47453,1.10489 -0.758,0.80599 -1.7393,2.26538 -1.6103,2.39438 0.052,0.052 0.79199,-0.48231 1.64399,-1.18631 2.269,-1.877 2.85889,-1.71598 1.99989,0.54402 -0.672,1.769 -0.47365,2.40675 0.48435,1.55975 0.402,-0.35599 0.4075,-0.34986 0.2485,0.26114 -1.237,4.751 -1.53498,12.01935 -0.63598,15.52035 1.06,4.129 0.0853,5.49867 -4.4027,6.18568 -1.127,0.17299 -2.28317,0.42184 -2.56917,0.55384 -1.294,0.598 -2.3192,4.5874 -1.2502,4.8674 0.96501,0.252 -0.0746,1.44793 -1.41164,1.62293 -1.549,0.203 -1.88392,0.40937 -2.01392,1.24037 -0.064,0.406 -0.16533,1.05563 -0.22533,1.44463 -0.132,0.852 -0.63766,1.09275 -2.59866,1.23475 -1.284,0.093 -4.37084,1.29692 -4.70384,1.83493 -0.229,0.37199 0.59401,0.4404 1.29301,0.10739 2.124,-1.01299 2.43979,0.21162 1.17578,4.55363 -0.85699,2.94599 -1.64907,3.48919 -5.57707,3.82919 l -1.66716,0.1432 0.83323,0.26675 c 5.007,1.60399 8.68224,-1.07477 9.46524,-6.89677 0.277,-2.057 1.03843,-3.63786 1.83843,-3.81586 1.142,-0.254 1.41448,-0.36152 1.92548,-0.75952 0.725,-0.565 1.02569,-1.17597 1.03469,-2.10097 0.006,-0.683 0.09,-0.8197 0.61001,-1.0017 0.94099,-0.328 2.10517,-2.2691 2.10517,-3.5091 0,-2.273 1.00855,-3.21616 3.77655,-3.53016 3.466,-0.394 4.53316,-1.87257 3.81516,-5.28857 -0.611,-2.909 -0.70364,-3.88324 -0.72864,-7.64225 -0.016,-2.45499 0.0499,-3.66518 0.20287,-3.71618 0.124,-0.041 0.22603,-0.20793 0.22603,-0.36993 0,-0.365 0.2446,-0.3791 0.6086,-0.0351 0.221,0.209 0.29655,0.20757 0.37555,-0.008 0.08,-0.22001 0.15769,-0.22001 0.42469,0 0.289,0.239 0.29679,0.216 0.0688,-0.212 l -0.25551,-0.48154 0.69073,0.34958 0.69072,0.34957 -0.72863,-0.77567 -0.72934,-0.77496 0.72934,0.43802 c 1.12,0.672 1.44285,0.51971 0.44785,-0.21129 -0.983,-0.723 -1.04272,-0.9852 -0.11372,-0.5012 0.978,0.51 1.28764,0.36342 0.44364,-0.21058 -0.87,-0.59001 -1.04086,-1.04047 -0.30886,-0.81147 0.258,0.081 0.60928,0.19098 0.78128,0.24498 0.172,0.053 0.0121,-0.0957 -0.35589,-0.33273 l -0.66967,-0.431 0.38608,-1.12033 c 0.582,-1.692 1.01403,-2.44962 1.98304,-3.47962 1.67199,-1.776 1.95908,-2.50486 3.32308,-8.43687 1.005,-4.372 1.03983,-4.69016 1.05083,-9.58316 0.028,-11.991 -1.75362,-19.54588 -5.98562,-25.37588 -4.618,-6.36 -8.39619,-10.01146 -15.21219,-14.70047 -2.26875,-1.56093 -7.23331,-4.21922 -7.5566,-4.07909 z"
                    id="path5347"
                    inkscape:connector-curvature="0"/>
            <path
                    style="opacity:1;fill:#000000;fill-opacity:1;fill-rule:evenodd;stroke:none;stroke-width:0.27167538;stroke-miterlimit:4;stroke-dasharray:none;filter:url(#filter5297)"
                    d="m -805.07762,-473.3869 c -0.11568,0.003 -0.19795,0.0675 -0.26745,0.17971 -0.304,0.49199 4.5616,5.91118 5.5876,6.22218 1.075,0.327 4.31432,0.46366 5.66132,0.23866 4.508,-0.754 12.11364,-0.91777 14.47864,-0.31377 0.376,0.096 0.43418,0.078 0.20918,-0.066 -1.633,-1.042 -6.35418,-1.59745 -11.12818,-1.30845 -7.645,0.462 -7.01974,0.48309 -8.60674,-0.28991 -1.028,-0.501 -1.96848,-1.23051 -3.46347,-2.68851 -1.47976,-1.44225 -2.12389,-1.9832 -2.4709,-1.97392 z"
                    id="path5345"
                    inkscape:connector-curvature="0"/>
            <path
                    style="opacity:1;fill:#000000;fill-opacity:1;fill-rule:evenodd;stroke:none;stroke-width:0.27167538;stroke-miterlimit:4;stroke-dasharray:none;filter:url(#filter5297)"
                    d="m -809.21849,-464.35126 0.1081,0.98064 c 0.545,4.958 4.95792,9.57238 10.63892,11.12538 2.705,0.739 3.15574,0.21698 0.62474,-0.72302 -4.724,-1.755 -8.07363,-4.9347 -10.78563,-10.2367 z"
                    id="path5343"
                    inkscape:connector-curvature="0"/>
            <path
                    style="opacity:1;fill:#000000;fill-opacity:1;fill-rule:evenodd;stroke:none;stroke-width:0.27167538;stroke-miterlimit:4;stroke-dasharray:none;filter:url(#filter5297)"
                    d="m -769.3043,-463.02947 0.73986,0.69284 c 0.407,0.381 1.53169,1.30222 2.49968,2.04621 0.968,0.745 3.77503,3.33589 6.23903,5.75889 2.464,2.423 4.90103,4.76836 5.41703,5.21136 0.515,0.443 2.24745,2.16358 3.84745,3.82358 4.114,4.268 4.21983,4.37462 4.37883,4.37462 0.231,0 -1.45206,-2.99755 -2.42106,-4.31355 -1.272,-1.726 -6.29361,-6.688 -9.34661,-9.235 -1.432,-1.196 -3.3506,-2.81455 -4.2616,-3.59754 -1.667,-1.434 -4.1219,-3.13441 -6.0509,-4.19141 z"
                    id="path5341"
                    inkscape:connector-curvature="0"/>
            <path
                    style="opacity:1;fill:#000000;fill-opacity:1;fill-rule:evenodd;stroke:none;stroke-width:0.27167538;stroke-miterlimit:4;stroke-dasharray:none;filter:url(#filter5297)"
                    d="m -789.36002,-449.15662 c -0.0823,-0.005 -0.1051,0.0405 -0.1411,0.099 -0.165,0.267 1.33868,1.5114 3.06968,2.5404 0.8,0.475 1.79296,1.16316 2.20696,1.52816 0.414,0.36601 1.36329,1.12482 2.10729,1.68682 3.511,2.649 6.78707,5.64209 9.44207,8.62709 4.201,4.723 10.71664,11.35685 10.03664,10.21985 -0.71001,-1.188 -4.49907,-6.1889 -6.53807,-8.6299 -0.758,-0.90701 -1.75962,-2.12617 -2.22662,-2.70817 -1.196,-1.492 -4.93918,-4.98708 -6.54718,-6.11408 -0.745,-0.522 -1.87713,-1.34873 -2.51513,-1.83773 -0.639,-0.489 -2.72424,-1.82942 -4.63224,-2.97842 -3.2385,-1.94925 -4.01546,-2.41861 -4.2623,-2.433 z"
                    id="path5339"
                    inkscape:connector-curvature="0"/>
            <path
                    style="opacity:1;fill:#000000;fill-opacity:1;fill-rule:evenodd;stroke:none;stroke-width:0.27167538;stroke-miterlimit:4;stroke-dasharray:none;filter:url(#filter5297)"
                    d="m -791.57611,-442.01838 c -0.17484,7.2e-4 -0.13365,0.69523 -0.0527,2.30173 0.068,1.347 0.18432,2.97642 0.25832,3.62142 0.135,1.183 -0.21484,3.10375 -0.83884,4.60275 -0.157,0.375 -0.34839,1.15102 -0.42539,1.72402 -0.242,1.807 -1.39559,5.75733 -1.71559,5.88032 -0.166,0.064 -0.39039,0.31355 -0.4984,0.55455 -0.604,1.356 0.42007,-5.05565 1.06207,-6.64265 1.528,-3.782 1.56826,-5.96681 0.16426,-9.0588 -0.233,-0.513 -0.55006,-1.31005 -0.70407,-1.77105 -0.254,-0.758 -0.26896,-0.58104 -0.16496,1.88195 0.124,2.91101 -0.0344,3.81015 -1.45937,8.32316 -1.715,5.43299 -2.5664,13.36302 -1.8244,16.97902 0.857,4.169 1.18542,6.97395 1.11542,9.50595 l -0.0407,1.48465 -1.82299,0.0934 c -1.205,0.062 -2.176,0.24279 -2.864,0.53279 -0.573,0.241 -1.6049,0.59519 -2.2919,0.78619 -1.951,0.542 -2.42337,1.15342 -4.78737,6.20042 -0.52,1.111 -1.75464,5.10539 -1.76965,5.72239 -0.005,0.218 1.99225,3.3099 3.63125,5.6199 1.021,1.43999 9.05155,7.85195 9.39855,7.50395 0.048,-0.047 0.31294,-1.00011 0.58894,-2.11711 0.277,-1.117 0.55584,-2.0826 0.61984,-2.1466 0.16199,-0.162 -4.40169,-4.88652 -6.51069,-6.73952 -0.961,-0.843 -1.63086,-1.57172 -1.48886,-1.61872 0.141,-0.047 0.83259,0.47313 1.53659,1.15613 2.744,2.66 6.82603,6.09863 7.24003,6.09863 0.142,0 0.78147,-0.45301 1.42147,-1.00801 0.639,-0.554 1.37195,-1.11951 1.62995,-1.25651 0.743,-0.395 0.55788,-0.66715 -1.47412,-2.16415 -2.338,-1.722 -7.59684,-6.44829 -8.28384,-7.44429 -2.168,-3.142 -2.50417,-4.05885 -2.06516,-5.63885 0.466,-1.677 3.17165,-2.83969 6.74865,-2.89769 0.68799,-0.011 0.37213,1.97672 -1.02487,6.45172 -1.146,3.671 -1.2199,3.22329 0.8571,5.19029 0.995,0.942 1.88512,1.63551 1.97812,1.54151 0.209,-0.21 0.79393,-5.03177 0.86692,-7.14877 l 0.054,-1.56186 0.28009,1.56186 c 0.154,0.86 0.32918,3.13522 0.38818,5.05622 0.107,3.42 0.11966,3.50161 0.62966,3.90361 0.536,0.421 0.88938,0.38736 0.88938,-0.0856 0,-0.147 0.18837,-0.43821 0.41837,-0.64721 1.937,-1.752 3.02758,-14.0703 1.49658,-16.8983 -1.049,-1.936 -2.02216,-3.38785 -2.17116,-3.23885 -0.291,0.291 -1.61438,4.27428 -1.63838,4.93128 -0.012,0.344 -0.10467,0.8596 -0.20567,1.1456 -0.337,0.954 0.0161,-2.70665 0.53209,-5.52865 0.461,-2.51799 0.48854,-3.057 0.37554,-7.412 -0.122,-4.742 0.19862,-7.30323 0.97362,-7.78123 0.105,-0.066 0.34247,-0.63906 0.52647,-1.27406 0.37,-1.271 1.19453,-2.88782 2.26453,-4.44482 1.594,-2.317 1.05278,-9.6152 -0.93922,-12.6732 -0.48082,-0.73806 -0.74779,-1.15729 -0.88377,-1.15683 z"
                    id="path5337"
                    inkscape:connector-curvature="0"/>
            <path
                    style="opacity:1;fill:#000000;fill-opacity:1;fill-rule:evenodd;stroke:none;stroke-width:0.27167538;stroke-miterlimit:4;stroke-dasharray:none;filter:url(#filter5297)"
                    d="m -786.01307,-434.46107 -0.12917,1.52045 c -0.071,0.837 -0.28342,2.22099 -0.47242,3.07599 -0.422,1.911 -0.44901,6.43458 -0.04,6.68758 0.277,0.171 1.16394,0.0255 1.51694,-0.24849 0.513,-0.399 0.19198,-9.46373 -0.36502,-10.28373 z"
                    id="path5335"
                    inkscape:connector-curvature="0"/>
            <path
                    style="opacity:1;fill:#000000;fill-opacity:1;fill-rule:evenodd;stroke:none;stroke-width:0.27167538;stroke-miterlimit:4;stroke-dasharray:none;filter:url(#filter5297)"
                    d="m -784.82536,-402.65102 v 2.69694 c 0,2.165 0.0679,2.7935 0.34186,3.18549 0.288,0.411 0.32403,0.86809 0.22603,2.85909 -0.188,3.811 1.34796,3.04227 2.02796,-1.01574 0.111,-0.65899 0.0268,-0.93288 -0.53419,-1.74788 -0.522,-0.76 -0.6988,-1.28544 -0.8248,-2.44844 -0.101,-0.932 -0.36015,-1.85959 -0.69916,-2.50459 z"
                    id="path5333"
                    inkscape:connector-curvature="0"/>
            <path
                    style="opacity:1;fill:#000000;fill-opacity:1;fill-rule:evenodd;stroke:none;stroke-width:0.27167538;stroke-miterlimit:4;stroke-dasharray:none;filter:url(#filter5297)"
                    d="m -810.48132,-388.30645 c -0.058,-0.058 -0.44641,0.80848 -0.86341,1.92548 -0.417,1.116 -0.8674,2.31564 -1.0024,2.66464 -0.232,0.6 -0.17942,0.7328 0.95958,2.39579 1.811,2.64301 2.34491,3.26916 3.40591,3.99416 0.533,0.364 1.902,1.44209 3.043,2.39509 2.684,2.241 7.17488,4.95599 6.86588,4.14999 -0.07,-0.182 0.0376,-1.23835 0.23656,-2.34735 0.354,-1.964 0.35311,-2.02433 -0.0309,-2.30033 -2.117,-1.522 -3.56137,-2.70944 -4.89337,-4.02644 -0.869,-0.86 -2.13506,-1.98579 -2.81206,-2.50179 -0.931,-0.71 -1.66773,-1.58724 -3.01773,-3.59124 -0.982,-1.459 -1.83308,-2.7 -1.89108,-2.758 z"
                    id="path5331"
                    inkscape:connector-curvature="0"/>
            <path
                    style="opacity:1;fill:#000000;fill-opacity:1;fill-rule:evenodd;stroke:none;stroke-width:0.27167538;stroke-miterlimit:4;stroke-dasharray:none;filter:url(#filter5297)"
                    d="m -812.68197,-381.90948 c -0.0372,-0.008 -0.0591,0.0219 -0.0934,0.0562 -0.056,0.057 -0.0147,0.70593 0.0913,1.44393 l 0.19163,1.34075 -2.71378,2.98403 c -5.172,5.683 -8.44113,7.52726 -14.19013,8.00727 -1.92001,0.16 -1.98142,0.2312 -0.86342,1.0052 1.74301,1.209 4.1245,4.01164 3.9015,4.59363 -0.313,0.815 -2.15098,0.39715 -2.75098,-0.62685 -0.666,-1.136 -3.71718,-3.86067 -5.04218,-4.50167 -1.29,-0.625 -11.66203,-0.69742 -16.33604,-0.11442 -5.04,0.628 -9.36409,2.46 -8.62709,3.653 0.13,0.211 0.3522,0.19537 4.0812,-0.29763 9.769,-1.289 13.25023,-0.87312 21.45823,2.56988 1.891,0.793 4.32804,1.75286 5.41704,2.13185 3.934,1.372 5.26565,2.32186 5.74765,4.10086 0.116,0.427 0.2111,0.44824 1.5401,0.33624 1.812,-0.151 2.31709,-0.0108 2.75309,0.76514 0.403,0.715 0.9187,0.64387 2.1487,-0.29413 0.346,-0.264 1.61246,-1.00026 2.81346,-1.63627 5.573,-2.949 5.89082,-3.14887 6.12882,-3.85587 0.126,-0.375 0.51515,-0.84808 0.87815,-1.06908 0.359,-0.218 0.7125,-0.49381 0.7855,-0.61282 0.074,-0.11899 0.90515,-0.73622 1.84616,-1.37022 0.94199,-0.634 2.22738,-1.52895 2.85838,-1.98795 0.63,-0.459 1.54337,-0.99795 2.02937,-1.19895 1.242,-0.511 1.28455,-0.46767 -2.34245,-2.38667 -1.031,-0.545 -1.81033,-0.99338 -1.73033,-0.99538 0.079,-0.002 1.00022,0.28387 2.04622,0.63387 2.82199,0.946 4.249,0.56247 2.042,-0.54753 -2.406,-1.211 -4.04885,-2.32348 -6.28185,-4.25248 -1.282,-1.108 -2.93918,-2.45939 -3.68318,-3.00439 -0.98501,-0.721 -1.70189,-1.50013 -2.64289,-2.87312 -1.10325,-1.60801 -1.34922,-1.97252 -1.46078,-1.99638 z"
                    id="path5329"
                    inkscape:connector-curvature="0"/>
            <path
                    style="opacity:1;fill:#000000;fill-opacity:1;fill-rule:evenodd;stroke:none;stroke-width:0.27167538;stroke-miterlimit:4;stroke-dasharray:none;filter:url(#filter5297)"
                    d="m -762.30505,-377.54048 c -0.1835,-0.004 -0.5091,0.0463 -1.1456,0.14531 -0.9,0.141 -1.41746,0.68772 -1.02346,1.08172 0.295,0.295 2.66988,-0.72164 2.46388,-1.05364 -0.0695,-0.113 -0.11132,-0.16989 -0.29482,-0.17339 z"
                    id="path5327"
                    inkscape:connector-curvature="0"/>
            <path
                    style="opacity:1;fill:#000000;fill-opacity:1;fill-rule:evenodd;stroke:none;stroke-width:0.27167538;stroke-miterlimit:4;stroke-dasharray:none;filter:url(#filter5297)"
                    d="m -757.39343,-375.46478 c -0.474,-0.0219 -0.94763,0.10636 -1.54713,0.37836 -0.816,0.37 -0.88477,0.46433 -0.88376,1.19333 0,0.436 -0.27843,1.44778 -0.61843,2.24978 -1.145,2.70201 -1.72345,4.15982 -2.23645,5.62481 -0.28,0.80201 -0.65493,1.57128 -0.83393,1.70928 -1.062,0.822 -1.75027,4.57493 -0.99327,5.41493 l 0.52717,0.58473 -0.13688,-1.01083 c -0.172,-1.263 0.43346,-3.47992 0.99046,-3.62492 0.20401,-0.054 0.52222,-0.52317 0.72022,-1.06417 2.606,-7.118 2.22176,-6.49217 5.21276,-8.50917 2.74,-1.848 2.66316,-1.70957 1.34917,-2.42457 -0.60151,-0.3275 -1.07593,-0.49968 -1.54993,-0.52156 z"
                    id="path5325"
                    inkscape:connector-curvature="0"/>
            <path
                    style="opacity:1;fill:#000000;fill-opacity:1;fill-rule:evenodd;stroke:none;stroke-width:0.27167538;stroke-miterlimit:4;stroke-dasharray:none;filter:url(#filter5297)"
                    d="m -752.91493,-373.57931 c -0.50579,-0.0329 -1.18633,0.23628 -1.85177,0.85709 -0.548,0.512 -1.4028,1.14101 -1.8988,1.39901 -1.048,0.545 -1.40686,1.20523 -2.20486,4.05523 -0.289,1.031 -0.66584,2.32633 -0.83884,2.87733 -0.494,1.584 0.38563,1.33824 0.98064,-0.27376 1.16999,-3.169 5.04308,-6.89103 5.93508,-5.70203 0.64399,0.858 -0.0868,3.5399 -1.43481,5.2619 -0.718,0.917 -0.48581,1.16237 0.53419,0.56438 1.136,-0.665 1.23976,-0.66596 2.45475,-0.0189 1.207,0.642 1.55395,0.65294 1.73595,0.0519 0.077,-0.258 0.27805,-0.76605 0.44505,-1.12805 0.288,-0.622 0.27283,-0.70886 -0.27517,-1.56186 -0.703,-1.095 -2.57379,-3.53248 -2.93279,-3.82147 -0.207,-0.16501 -0.20031,-0.37901 0.0337,-1.04101 0.32963,-0.936 -0.032,-1.47742 -0.6823,-1.51975 z"
                    id="path5323"
                    inkscape:connector-curvature="0"/>
            <path
                    style="opacity:1;fill:#000000;fill-opacity:1;fill-rule:evenodd;stroke:none;stroke-width:0.27167538;stroke-miterlimit:4;stroke-dasharray:none;filter:url(#filter5297)"
                    d="m -750.22852,-369.5662 c -0.15325,0.0229 0.0734,0.36914 0.52226,0.99608 0.431,0.602 0.95757,1.33153 1.17157,1.62153 0.36,0.491 0.36651,0.59456 0.0765,1.41655 l -0.31308,0.88658 2.85768,3.05423 c 5.187,5.541 7.2555,7.30584 10.8825,9.28484 1.203,0.656 7.36141,3.03623 8.09641,3.12723 0.503,0.063 0.86294,-1.52499 0.97994,-4.32899 0.153,-3.655 0.0914,-3.82847 -1.59064,-4.39147 -3.908,-1.30899 -14.46021,-6.65271 -19.87321,-10.06471 -1.78819,-1.12669 -2.61291,-1.63129 -2.80995,-1.60187 z"
                    id="path5321"
                    inkscape:connector-curvature="0"/>
            <path
                    style="opacity:1;fill:#000000;fill-opacity:1;fill-rule:evenodd;stroke:none;stroke-width:0.27167538;stroke-miterlimit:4;stroke-dasharray:none;filter:url(#filter5297)"
                    d="m -798.99022,-365.20422 c -0.37275,0.003 -0.46025,0.264 -0.84025,0.789 -0.745,1.028 -0.78523,0.98802 1.67277,1.65102 1.127,0.303 2.22454,0.45768 3.02054,0.42468 0.687,-0.028 2.06978,-0.0655 3.07178,-0.0835 1.278,-0.023 1.82299,-0.1091 1.82299,-0.2871 0,-0.267 -0.34332,-0.3639 -2.40632,-0.68091 -0.693,-0.10699 -2.39748,-0.57792 -3.78848,-1.04591 -1.522,-0.51251 -2.18028,-0.76962 -2.55303,-0.76725 z"
                    id="path5319"
                    inkscape:connector-curvature="0"/>
            <path
                    style="opacity:1;fill:#000000;fill-opacity:1;fill-rule:evenodd;stroke:none;stroke-width:0.27167538;stroke-miterlimit:4;stroke-dasharray:none;filter:url(#filter5297)"
                    d="m -749.57219,-363.86909 c -0.12684,0.008 -0.24986,0.0532 -0.40924,0.10179 -0.907,0.27499 -0.85978,0.36111 0.58122,1.04311 0.973,0.462 1.64684,1.03786 3.16585,2.70886 1.061,1.167 2.6096,2.7933 3.4396,3.61229 0.848,0.83601 1.51133,1.66759 1.51133,1.8946 0,0.229 0.56713,0.93593 1.30213,1.62293 2.961,2.767 6.76979,6.54793 7.51379,7.45693 0.876,1.072 1.15221,1.16661 1.68822,0.57561 0.19799,-0.219 0.58681,-0.45507 0.86481,-0.52507 0.278,-0.07 0.50611,-0.21339 0.50611,-0.31939 0,-0.302 -5.45527,-5.162 -8.43826,-7.518 -1.52401,-1.203 -4.39293,-3.83461 -6.56194,-6.01861 -3.99018,-4.017 -4.61396,-4.67038 -5.16362,-4.63505 z"
                    id="path5317"
                    inkscape:connector-curvature="0"/>
            <path
                    style="opacity:1;fill:#000000;fill-opacity:1;fill-rule:evenodd;stroke:none;stroke-width:0.27167538;stroke-miterlimit:4;stroke-dasharray:none;filter:url(#filter5297)"
                    d="m -749.90562,-362.35636 c -0.013,0.009 -1.61464,0.43303 -3.55964,0.94203 -1.945,0.51 -3.61335,1.00316 -3.70635,1.09716 -0.27701,0.276 0.19899,1.96617 1.28599,4.57117 0.56,1.34 1.30724,3.1765 1.66224,4.0805 0.746,1.906 2.15225,3.86151 2.80925,3.90851 1.107,0.078 2.79838,-0.27738 6.79638,-1.42638 1.339,-0.385 4.58451,-2.08611 4.58451,-2.40211 0,-0.12 -0.47122,-0.68098 -1.04522,-1.24598 l -1.04522,-1.02907 -2.1108,0.75109 c -2.636,0.937 -2.55619,0.88082 -2.14519,1.50782 0.478,0.73 0.17315,0.95524 -1.52185,1.12524 -0.772,0.078 -1.8032,0.20982 -2.2912,0.29482 -1.47,0.256 -4.13499,-3.8165 -5.22399,-7.9855 l -0.34537,-1.32741 0.62475,-0.4998 c 0.839,-0.672 2.8018,-0.72134 3.4368,-0.0863 0.558,0.557 2.91294,0.17518 2.91594,-0.47382 10e-4,-0.141 -1.05803,-1.84293 -1.12103,-1.80193 z"
                    id="path5315"
                    inkscape:connector-curvature="0"/>
            <path
                    style="opacity:1;fill:#000000;fill-opacity:1;fill-rule:evenodd;stroke:none;stroke-width:0.27167538;stroke-miterlimit:4;stroke-dasharray:none;filter:url(#filter5297)"
                    d="m -753.0146,-359.23334 c -0.516,0.004 -1.00406,0.0753 -1.23756,0.21129 -0.517,0.301 -0.51024,0.32508 0.98977,3.42908 0.74399,1.541 1.35569,2.87247 1.35969,2.95946 0.003,0.086 0.2931,0.47291 0.6451,0.85991 l 0.63949,0.70196 1.6468,-0.0948 c 1.91,-0.111 2.02967,-0.17757 1.56467,-0.88657 -0.324,-0.495 -0.45188,-0.52718 -2.10588,-0.52718 -2.045,0 -1.89992,0.14374 -3.04792,-3.02826 -0.72699,-2.011 -0.68885,-2.1521 0.62615,-2.3291 1.023,-0.137 1.20801,-0.771 0.32501,-1.10699 -0.3455,-0.131 -0.88932,-0.19308 -1.40532,-0.18883 z"
                    id="path5313"
                    inkscape:connector-curvature="0"/>
            <path
                    style="opacity:1;fill:#000000;fill-opacity:1;fill-rule:evenodd;stroke:none;stroke-width:0.27167538;stroke-miterlimit:4;stroke-dasharray:none;filter:url(#filter5297)"
                    d="m -807.05154,-359.20314 c -0.27412,0.008 -0.48296,0.17462 -0.95397,0.50962 -1.417,1.009 -0.93116,1.99003 1.40884,2.83803 0.802,0.291 1.61817,0.59337 1.81317,0.67037 0.26799,0.107 0.42733,-0.0339 0.65633,-0.58193 0.166,-0.398 0.59265,-0.89558 0.94765,-1.10558 0.856,-0.50601 0.82103,-0.6085 -0.34397,-1.0375 -0.54399,-0.2 -1.52599,-0.58208 -2.18099,-0.85008 -0.7335,-0.3 -1.07293,-0.45093 -1.34706,-0.44293 z"
                    id="path5311"
                    inkscape:connector-curvature="0"/>
            <path
                    style="opacity:1;fill:#000000;fill-opacity:1;fill-rule:evenodd;stroke:none;stroke-width:0.27167538;stroke-miterlimit:4;stroke-dasharray:none;filter:url(#filter5297)"
                    d="m -723.30833,-356.29141 0.0941,1.38637 c 0.064,0.936 -0.0469,2.05854 -0.34186,3.45154 -0.239,1.135 -0.43662,2.18502 -0.43662,2.33402 0,0.148 0.8221,0.69329 1.8251,1.21229 1.785,0.921 7.46888,4.55221 10.77089,6.87921 l 1.65732,1.16737 1.12033,-2.24488 c 2.296,-4.607 3.23439,-7.40251 2.57339,-7.66751 -0.188,-0.076 -2.07702,-0.79426 -4.19702,-1.59626 -2.119,-0.803 -5.58753,-2.11505 -7.70753,-2.91805 -2.12,-0.803 -4.19327,-1.58174 -4.60627,-1.73174 z"
                    id="path5309"
                    inkscape:connector-curvature="0"/>
            <path
                    style="opacity:1;fill:#000000;fill-opacity:1;fill-rule:evenodd;stroke:none;stroke-width:0.27167538;stroke-miterlimit:4;stroke-dasharray:none;filter:url(#filter5297)"
                    d="m -703.26243,-347.9816 -0.0231,2.73554 c -0.02,2.319 0.0193,2.67443 0.2513,2.33543 0.446,-0.65101 0.97298,-1.12876 1.24598,-1.12876 0.141,0 0.35412,-0.28074 0.47312,-0.62474 0.265,-0.76 0.43278,-0.77109 1.49378,-0.10109 1.232,0.777 1.00487,0.46609 -0.47313,-0.6479 -0.716,-0.54 -1.67666,-1.33926 -2.13466,-1.77526 z"
                    id="path5307"
                    inkscape:connector-curvature="0"/>
            <path
                    style="opacity:1;fill:#000000;fill-opacity:1;fill-rule:evenodd;stroke:none;stroke-width:0.27167538;stroke-miterlimit:4;stroke-dasharray:none;filter:url(#filter5297)"
                    d="m -697.9514,-343.64418 c -0.0773,2e-5 -0.10983,0.034 -0.08,0.11161 0.064,0.166 0.006,0.83103 -0.12917,1.47903 -0.22899,1.104 -0.21706,1.19724 0.19094,1.48324 0.581,0.406 0.55828,0.58425 -0.29272,2.27225 -1.335,2.651 -0.69189,2.68561 0.71811,0.0386 0.382,-0.715 0.73567,-1.11494 1.02767,-1.15894 1.033,-0.155 1.52328,-2.22565 0.70827,-2.98965 -0.62887,-0.58906 -1.80818,-1.23624 -2.14308,-1.23615 z"
                    id="path5305"
                    inkscape:connector-curvature="0"/>
            <path
                    style="opacity:1;fill:#000000;fill-opacity:1;fill-rule:evenodd;stroke:none;stroke-width:0.27167538;stroke-miterlimit:4;stroke-dasharray:none;filter:url(#filter5297)"
                    d="m -694.52864,-339.97433 -0.72091,1.24879 c -0.717,1.24 -0.72204,1.26806 -0.73004,3.85306 -0.005,1.558 -0.10973,2.84011 -0.25973,3.19111 -0.139,0.322 -0.2534,0.69903 -0.2534,0.83604 0,0.39 -0.82579,1.84077 -1.46079,2.56777 -0.317,0.362 -0.97518,1.48738 -1.46218,2.50038 -0.488,1.014 -0.92179,1.90574 -0.96379,1.98374 -0.228,0.417 0.38333,0.27986 1.19333,-0.26815 0.508,-0.344 1.37448,-0.8589 1.92548,-1.14489 0.603,-0.312 1.17551,-0.8116 1.43551,-1.2516 0.595,-1.009 0.75881,-0.70116 0.79181,1.48184 0.036,2.417 -0.39817,3.70402 -1.78017,5.27102 -0.595,0.675 -0.85281,1.08805 -0.61281,0.98205 0.227,-0.10101 0.89977,-0.22215 1.49377,-0.26815 l 1.08102,-0.0849 0.14179,0.80024 c 0.078,0.44 0.32523,1.58501 0.54823,2.54601 0.32801,1.408 0.36534,1.93146 0.19234,2.70746 -0.118,0.529 -0.46213,2.13436 -0.76514,3.56736 -0.302,1.432 -0.74132,3.14393 -0.97431,3.80393 -0.46301,1.308 -0.45651,1.56732 0.14249,6.09232 0.433,3.269 0.90276,5.82596 1.27476,6.93396 0.165,0.491 0.29904,1.60371 0.29904,2.47371 v 1.58222 l 0.81498,-0.13056 c 0.449,-0.072 0.98824,-0.18541 1.19824,-0.25341 0.274,-0.089 0.23471,-0.002 -0.13829,0.30395 -0.286,0.235 -0.77905,0.48565 -1.09505,0.55665 -1.54901,0.34701 -1.17819,1.55786 0.43381,1.41586 3.014,-0.264 3.38417,-1.48805 2.21117,-7.32005 -0.726,-3.615 -1.41296,-12.67433 -1.38496,-18.27133 0.004,-0.802 0.0251,-3.33613 0.047,-5.63113 0.021,-2.294 -0.0673,-4.87341 -0.19725,-5.72941 -0.13,-0.85599 -0.41186,-3.3376 -0.62685,-5.5146 -0.32601,-3.299 -0.88674,-6.75121 -1.65874,-10.20721 z"
                    id="path1"
                    inkscape:connector-curvature="0"/>
        </g>
    </g>
</svg>
