<?xml version="1.0" encoding="utf-8"?>
<svg viewBox="118.168 13.607 169.247 196.667" width="169.247px" height="196.667px" xmlns="http://www.w3.org/2000/svg">
    <g>
        <path id="path1"
              d="M 209.622 14.059 C 204.322 15.078 201.759 15.721 198.489 16.854 C 195.828 17.776 193.469 18.408 190.254 19.058 L 187.448 19.627 L 184.996 19.282 C 181.819 18.837 180.436 18.31 179.087 17.035 C 177.829 15.845 177.677 15.815 177.317 16.683 C 176.573 18.479 179.703 23.859 181.985 24.707 C 182.735 24.986 183.999 25.062 183.995 24.827 C 183.986 24.291 183.341 22.378 182.962 21.764 C 181.841 19.951 182.307 19.725 186.289 20.151 C 189.156 20.458 191.218 20.129 197.018 18.439 C 202.927 16.716 208.161 15.678 212.983 15.273 C 216.433 14.982 220.175 16.295 224.831 19.428 C 229.596 22.635 231.87 24.478 237.852 29.981 C 240.185 32.128 243.896 36.304 245.247 38.304 C 250.825 46.558 253.764 52.034 254.515 55.571 C 254.79 56.867 254.881 56.052 254.62 54.629 C 253.066 46.142 246.916 34.374 241.573 29.66 C 240.672 28.865 239.044 27.381 237.956 26.363 C 226.446 15.591 218.837 12.287 209.622 14.059"
              stroke="none" fill-rule="evenodd" style="paint-order: stroke markers;"/>
        <path id="path1"
              d="M 191.222 63.999 C 191.151 64.836 190.939 66.22 190.75 67.075 C 190.328 68.986 190.301 73.509 190.71 73.762 C 190.987 73.933 191.874 73.788 192.227 73.514 C 192.74 73.115 192.419 64.05 191.862 63.23 L 191.351 62.478 L 191.222 63.999"
              stroke="none" fill-rule="evenodd" style="paint-order: stroke markers; fill: rgb(8, 150, 230);"/>
        <path id="path1"
              d="M 185.736 57.223 C 185.804 58.57 185.92 60.199 185.994 60.844 C 186.129 62.027 185.779 63.948 185.155 65.447 C 184.998 65.822 184.807 66.598 184.73 67.171 C 184.488 68.978 183.334 72.928 183.014 73.051 C 182.848 73.115 182.624 73.365 182.516 73.606 C 181.912 74.962 182.936 68.55 183.578 66.963 C 185.106 63.181 185.146 60.996 183.742 57.904 C 183.509 57.391 183.192 56.594 183.038 56.133 C 182.784 55.375 182.769 55.552 182.873 58.015 C 182.997 60.926 182.839 61.825 181.414 66.338 C 179.699 71.771 178.847 79.701 179.589 83.317 C 180.446 87.486 180.775 90.291 180.705 92.823 L 180.664 94.308 L 178.841 94.401 C 177.636 94.463 176.665 94.644 175.977 94.934 C 175.404 95.175 174.372 95.529 173.685 95.72 C 171.734 96.262 171.262 96.874 168.898 101.921 C 168.378 103.032 167.143 107.026 167.128 107.643 C 167.123 107.861 169.12 110.953 170.759 113.263 C 171.78 114.703 179.811 121.115 180.158 120.767 C 180.206 120.72 180.471 119.767 180.747 118.65 C 181.024 117.533 181.303 116.567 181.367 116.503 C 181.529 116.341 176.965 111.617 174.856 109.764 C 173.895 108.921 173.225 108.192 173.367 108.145 C 173.508 108.098 174.2 108.618 174.904 109.301 C 177.648 111.961 181.73 115.4 182.144 115.4 C 182.286 115.4 182.925 114.947 183.565 114.392 C 184.204 113.838 184.937 113.272 185.195 113.135 C 185.938 112.74 185.753 112.468 183.721 110.971 C 181.383 109.249 176.124 104.523 175.437 103.527 C 173.269 100.385 172.933 99.468 173.372 97.888 C 173.838 96.211 176.544 95.048 180.121 94.99 C 180.809 94.979 180.493 96.967 179.096 101.442 C 177.95 105.113 177.876 104.665 179.953 106.632 C 180.948 107.574 181.838 108.268 181.931 108.174 C 182.14 107.964 182.725 103.142 182.798 101.025 L 182.852 99.463 L 183.132 101.025 C 183.286 101.885 183.461 104.16 183.52 106.081 C 183.627 109.501 183.64 109.583 184.15 109.985 C 184.686 110.406 185.039 110.372 185.039 109.899 C 185.039 109.752 185.228 109.461 185.458 109.252 C 187.395 107.5 188.485 95.182 186.954 92.354 C 185.905 90.418 184.932 88.966 184.783 89.115 C 184.492 89.406 183.169 93.389 183.145 94.046 C 183.133 94.39 183.04 94.906 182.939 95.192 C 182.602 96.146 182.955 92.485 183.471 89.663 C 183.932 87.145 183.96 86.606 183.847 82.251 C 183.725 77.509 184.045 74.948 184.82 74.47 C 184.925 74.404 185.163 73.831 185.347 73.196 C 185.717 71.925 186.541 70.308 187.611 68.751 C 189.205 66.434 188.664 59.136 186.672 56.078 C 185.573 54.391 185.592 54.367 185.736 57.223"
              stroke="none" fill-rule="evenodd" style="paint-order: stroke markers;"/>
        <path id="path1"
              d="M 187.863 47.882 C 187.698 48.149 189.202 49.393 190.933 50.422 C 191.733 50.897 192.726 51.585 193.14 51.95 C 193.554 52.316 194.503 53.075 195.247 53.637 C 198.758 56.286 202.034 59.279 204.689 62.264 C 208.89 66.987 215.406 73.621 214.726 72.484 C 214.016 71.296 210.227 66.295 208.188 63.854 C 207.43 62.947 206.428 61.728 205.961 61.146 C 204.765 59.654 201.022 56.159 199.414 55.032 C 198.669 54.51 197.537 53.683 196.899 53.194 C 196.26 52.705 194.175 51.365 192.267 50.216 C 187.949 47.617 188.007 47.648 187.863 47.882"
              stroke="none" fill-rule="evenodd" style="paint-order: stroke markers;"/>
        <path id="path1"
              d="M 208.8 34.603 C 209.207 34.984 210.332 35.905 211.3 36.649 C 212.268 37.394 215.075 39.985 217.539 42.408 C 220.003 44.831 222.44 47.176 222.956 47.619 C 223.471 48.062 225.203 49.783 226.803 51.443 C 230.917 55.711 231.023 55.817 231.182 55.817 C 231.413 55.817 229.73 52.82 228.761 51.504 C 227.489 49.778 222.467 44.816 219.414 42.269 C 217.982 41.073 216.064 39.454 215.153 38.671 C 213.486 37.237 211.031 35.537 209.102 34.48 L 208.06 33.91 L 208.8 34.603"
              stroke="none" fill-rule="evenodd" style="paint-order: stroke markers;"/>
        <path id="path1"
              d="M 168.254 33.569 C 168.799 38.527 173.212 43.141 178.893 44.694 C 181.598 45.433 182.049 44.911 179.518 43.971 C 174.794 42.216 171.444 39.036 168.732 33.734 L 168.146 32.588 L 168.254 33.569"
              stroke="none" fill-rule="evenodd" style="paint-order: stroke markers;"/>
        <path id="path1"
              d="M 172.019 23.732 C 171.715 24.224 176.581 29.643 177.607 29.954 C 178.682 30.281 181.921 30.418 183.268 30.193 C 187.776 29.439 195.382 29.275 197.747 29.879 C 198.123 29.975 198.181 29.957 197.956 29.813 C 196.323 28.771 191.602 28.216 186.828 28.505 C 179.183 28.967 179.808 28.988 178.221 28.215 C 177.193 27.714 176.253 26.984 174.758 25.526 C 172.785 23.603 172.297 23.283 172.019 23.732"
              stroke="none" fill-rule="evenodd" style="paint-order: stroke markers;"/>
        <path id="path1"
              d="M 227.658 128.369 C 228.089 128.971 228.616 129.701 228.83 129.991 C 229.19 130.482 229.196 130.585 228.906 131.407 L 228.593 132.294 L 231.451 135.348 C 236.638 140.889 238.706 142.654 242.333 144.633 C 243.536 145.289 249.695 147.669 250.43 147.76 C 250.933 147.823 251.293 146.235 251.41 143.431 C 251.563 139.776 251.501 139.603 249.819 139.04 C 245.911 137.731 235.359 132.387 229.946 128.975 C 226.767 126.972 226.632 126.936 227.658 128.369"
              stroke="none" fill-rule="evenodd" style="paint-order: stroke markers;"/>
        <path id="path1"
              d="M 234.502 16.416 C 234.558 16.507 235.006 16.854 235.497 17.189 C 242.525 21.971 247.816 26.732 250.874 31.025 C 251.486 31.885 252.436 33.167 252.985 33.875 C 256.589 38.521 260.366 46.859 258.866 46.859 C 258.096 46.859 256.864 45.086 254.305 40.296 C 251.182 34.451 244.541 27.39 236.497 21.364 C 232.536 18.396 233.339 19.521 237.852 23.26 C 245.729 29.789 249.877 34.675 254.788 43.208 C 258.197 49.132 258.319 49.584 257.933 54.88 C 257.259 64.113 255.55 70.316 252.299 75.337 C 251.69 76.278 251.501 76.751 251.605 77.077 C 251.71 77.409 251.587 77.696 251.13 78.182 C 250.372 78.988 249.391 80.447 249.52 80.576 C 249.572 80.628 250.312 80.094 251.164 79.39 C 253.433 77.513 254.023 77.674 253.164 79.934 C 252.492 81.703 252.69 82.341 253.648 81.494 C 254.05 81.138 254.056 81.144 253.897 81.755 C 252.66 86.506 252.362 93.774 253.261 97.275 C 254.321 101.404 253.346 102.774 248.858 103.461 C 247.731 103.634 246.575 103.883 246.289 104.015 C 244.995 104.613 243.97 108.602 245.039 108.882 C 246.004 109.134 244.964 110.33 243.627 110.505 C 242.078 110.708 241.743 110.914 241.613 111.745 C 241.549 112.151 241.448 112.801 241.388 113.19 C 241.256 114.042 240.75 114.283 238.789 114.425 C 237.505 114.518 234.418 115.722 234.085 116.26 C 233.856 116.632 234.679 116.7 235.378 116.367 C 237.502 115.354 237.818 116.579 236.554 120.921 C 235.697 123.867 234.905 124.41 230.977 124.75 L 229.31 124.893 L 230.143 125.16 C 235.15 126.764 238.825 124.085 239.608 118.263 C 239.885 116.206 240.647 114.625 241.447 114.447 C 242.589 114.193 242.861 114.086 243.372 113.688 C 244.097 113.123 244.398 112.512 244.407 111.587 C 244.413 110.904 244.497 110.767 245.017 110.585 C 245.958 110.257 247.122 108.316 247.122 107.076 C 247.122 104.803 248.131 103.86 250.899 103.546 C 254.365 103.152 255.432 101.673 254.714 98.257 C 254.103 95.348 254.01 94.374 253.985 90.615 C 253.969 88.16 254.035 86.95 254.188 86.899 C 254.312 86.858 254.414 86.691 254.414 86.529 C 254.414 86.164 254.659 86.15 255.023 86.494 C 255.244 86.703 255.319 86.701 255.398 86.485 C 255.478 86.265 255.556 86.265 255.823 86.485 C 256.112 86.724 256.12 86.701 255.892 86.273 L 255.636 85.792 L 256.327 86.141 L 257.018 86.491 L 256.289 85.715 L 255.56 84.94 L 256.289 85.378 C 257.409 86.05 257.732 85.898 256.737 85.167 C 255.754 84.444 255.694 84.182 256.623 84.666 C 257.601 85.176 257.911 85.029 257.067 84.455 C 256.197 83.865 256.026 83.415 256.758 83.644 C 257.016 83.725 257.367 83.835 257.539 83.889 C 257.711 83.942 257.551 83.793 257.183 83.556 L 256.514 83.125 L 256.9 82.005 C 257.482 80.313 257.914 79.555 258.883 78.525 C 260.555 76.749 260.842 76.02 262.206 70.088 C 263.211 65.716 263.246 65.398 263.257 60.505 C 263.285 48.514 261.503 40.959 257.271 35.129 C 252.653 28.769 248.875 25.118 242.059 20.429 C 239.639 18.764 234.152 15.85 234.502 16.416"
              stroke="none" fill-rule="evenodd" style="paint-order: stroke markers;"/>

        <path id="path1"
              d="M 164.589 115.086 C 164.533 115.143 164.574 115.792 164.68 116.53 L 164.872 117.871 L 162.158 120.855 C 156.986 126.538 153.717 128.382 147.968 128.862 C 146.048 129.022 145.987 129.093 147.105 129.867 C 148.848 131.076 151.229 133.879 151.006 134.461 C 150.693 135.276 148.855 134.858 148.255 133.834 C 147.589 132.698 144.538 129.973 143.213 129.332 C 141.923 128.707 131.551 128.635 126.877 129.218 C 121.837 129.846 117.513 131.678 118.25 132.871 C 118.38 133.082 118.602 133.066 122.331 132.573 C 132.1 131.284 135.581 131.7 143.789 135.143 C 145.68 135.936 148.117 136.896 149.206 137.275 C 153.14 138.647 154.472 139.597 154.954 141.376 C 155.07 141.803 155.165 141.824 156.494 141.712 C 158.306 141.561 158.811 141.701 159.247 142.477 C 159.65 143.192 160.166 143.121 161.396 142.183 C 161.742 141.919 163.008 141.183 164.209 140.547 C 169.782 137.598 170.1 137.398 170.338 136.691 C 170.464 136.316 170.853 135.843 171.216 135.622 C 171.575 135.404 171.929 135.128 172.002 135.009 C 172.076 134.89 172.907 134.273 173.848 133.639 C 174.79 133.005 176.075 132.11 176.706 131.651 C 177.336 131.192 178.25 130.653 178.736 130.452 C 179.978 129.941 180.02 129.984 176.393 128.065 C 175.362 127.52 174.583 127.072 174.663 127.07 C 174.742 127.068 175.663 127.354 176.709 127.704 C 179.531 128.65 180.958 128.266 178.751 127.156 C 176.345 125.945 174.702 124.833 172.469 122.904 C 171.187 121.796 169.53 120.444 168.786 119.899 C 167.801 119.178 167.084 118.399 166.143 117.026 C 164.672 114.882 164.726 114.949 164.589 115.086"
              stroke="none" fill-rule="evenodd" style="paint-order: stroke markers;"/>
        <path id="path1"
              d="M 227.383 133.172 C 226.476 133.447 226.523 133.533 227.964 134.215 C 228.937 134.677 229.611 135.253 231.13 136.924 C 232.191 138.091 233.74 139.717 234.57 140.536 C 235.418 141.372 236.081 142.204 236.081 142.431 C 236.081 142.66 236.648 143.367 237.383 144.054 C 240.344 146.821 244.153 150.602 244.897 151.511 C 245.773 152.583 246.049 152.677 246.585 152.086 C 246.783 151.867 247.172 151.631 247.45 151.561 C 247.728 151.491 247.956 151.348 247.956 151.242 C 247.956 150.94 242.501 146.08 239.518 143.724 C 237.994 142.521 235.125 139.889 232.956 137.705 C 228.045 132.761 228.233 132.913 227.383 133.172"
              stroke="none" fill-rule="evenodd" style="paint-order: stroke markers; fill: rgb(210, 136, 51);"/>

        <path id="path1"
              d="M 166.02 110.558 C 165.603 111.674 165.152 112.874 165.017 113.223 C 164.785 113.823 164.838 113.956 165.977 115.619 C 167.788 118.262 168.322 118.888 169.383 119.613 C 169.916 119.977 171.285 121.055 172.426 122.008 C 175.11 124.249 179.601 126.964 179.292 126.158 C 179.222 125.976 179.329 124.92 179.528 123.811 C 179.882 121.847 179.881 121.786 179.497 121.51 C 177.38 119.988 175.936 118.801 174.604 117.484 C 173.735 116.624 172.469 115.498 171.792 114.982 C 170.861 114.272 170.124 113.395 168.774 111.391 C 167.792 109.932 166.941 108.691 166.883 108.633 C 166.825 108.575 166.437 109.441 166.02 110.558"
              stroke="none" fill-rule="evenodd" style="paint-order: stroke markers;"/>
        <path id="path1"
              d="M 192.539 96.985 C 192.539 99.15 192.607 99.779 192.881 100.171 C 193.169 100.582 193.205 101.039 193.107 103.03 C 192.919 106.841 194.455 106.072 195.135 102.014 C 195.246 101.355 195.162 101.081 194.601 100.266 C 194.079 99.506 193.902 98.981 193.776 97.818 C 193.675 96.886 193.416 95.958 193.077 95.313 L 192.539 94.288 L 192.539 96.985"
              stroke="none" fill-rule="evenodd" style="paint-order: stroke markers;"/>
        <path id="path1"
              d="M 164.626 16.012 C 164.428 16.748 164.479 17.011 165.128 18.578 C 166.261 21.316 167.618 24.159 168.334 25.296 C 169.361 26.928 169.118 26.218 167.613 23.19 C 165.896 19.736 165.695 18.623 166.684 18.046 L 167.327 17.67 L 167.006 16.9 C 166.172 14.902 165.039 14.479 164.626 16.012"
              stroke="none" fill-rule="evenodd" style="paint-order: stroke markers; fill: rgb(8, 150, 230);"/>
        <path id="path1"
              d="M 177.534 132.524 C 176.789 133.552 176.749 133.512 179.207 134.175 C 180.334 134.478 181.431 134.633 182.227 134.6 C 182.914 134.572 184.297 134.534 185.299 134.516 C 186.577 134.493 187.122 134.407 187.122 134.229 C 187.122 133.962 186.779 133.865 184.716 133.548 C 184.023 133.441 182.318 132.97 180.927 132.502 C 177.883 131.477 178.294 131.474 177.534 132.524"
              stroke="none" fill-rule="evenodd" style="paint-order: stroke markers;"/>
        <path id="path1"
              d="M 222.598 124.217 C 222.05 124.729 221.195 125.358 220.699 125.616 C 219.651 126.161 219.292 126.821 218.494 129.671 C 218.205 130.702 217.828 131.998 217.655 132.549 C 217.161 134.133 218.041 133.887 218.636 132.275 C 219.806 129.106 223.679 125.384 224.571 126.573 C 225.215 127.431 224.484 130.113 223.136 131.835 C 222.418 132.752 222.65 132.997 223.67 132.399 C 224.806 131.734 224.91 131.733 226.125 132.38 C 227.332 133.022 227.679 133.033 227.861 132.432 C 227.938 132.174 228.139 131.666 228.306 131.304 C 228.594 130.682 228.579 130.595 228.031 129.742 C 227.328 128.647 225.457 126.21 225.098 125.921 C 224.891 125.756 224.898 125.542 225.132 124.88 C 225.718 123.216 224.119 122.798 222.598 124.217"
              stroke="none" fill-rule="evenodd" style="paint-order: stroke markers;"/>
        <path id="path1"
              d="M 218.424 121.853 C 217.608 122.223 217.539 122.317 217.54 123.046 C 217.54 123.482 217.262 124.494 216.922 125.296 C 215.777 127.998 215.198 129.456 214.685 130.921 C 214.405 131.723 214.03 132.492 213.851 132.63 C 212.789 133.452 212.101 137.205 212.858 138.045 L 213.385 138.63 L 213.248 137.619 C 213.076 136.356 213.682 134.139 214.239 133.994 C 214.443 133.94 214.761 133.471 214.959 132.93 C 217.565 125.812 217.181 126.438 220.172 124.421 C 222.912 122.573 222.835 122.711 221.521 121.996 C 220.318 121.341 219.623 121.309 218.424 121.853"
              stroke="none" fill-rule="evenodd" style="paint-order: stroke markers;"/>
        <path id="path1"
              d="M 282.115 158.214 C 281.398 159.454 281.393 159.482 281.385 162.067 C 281.38 163.625 281.275 164.907 281.125 165.258 C 280.986 165.58 280.872 165.957 280.872 166.094 C 280.872 166.484 280.046 167.935 279.411 168.662 C 279.094 169.024 278.436 170.149 277.949 171.162 C 277.461 172.176 277.027 173.068 276.985 173.146 C 276.757 173.563 277.368 173.426 278.178 172.878 C 278.686 172.534 279.553 172.019 280.104 171.733 C 280.707 171.421 281.279 170.921 281.539 170.481 C 282.134 169.472 282.298 169.78 282.331 171.963 C 282.367 174.38 281.933 175.667 280.551 177.234 C 279.956 177.909 279.698 178.322 279.938 178.216 C 280.165 178.115 280.838 177.994 281.432 177.948 L 282.513 177.863 L 282.655 178.663 C 282.733 179.103 282.98 180.248 283.203 181.209 C 283.531 182.617 283.568 183.141 283.395 183.917 C 283.277 184.446 282.933 186.051 282.63 187.484 C 282.328 188.916 281.889 190.628 281.656 191.288 C 281.193 192.596 281.199 192.855 281.798 197.38 C 282.231 200.649 282.701 203.206 283.073 204.314 C 283.238 204.805 283.372 205.918 283.372 206.788 L 283.372 208.37 L 284.187 208.24 C 284.636 208.168 285.175 208.054 285.385 207.986 C 285.659 207.897 285.62 207.984 285.247 208.29 C 284.961 208.525 284.468 208.776 284.152 208.847 C 282.603 209.194 282.974 210.405 284.586 210.263 C 287.6 209.999 287.97 208.775 286.797 202.943 C 286.071 199.328 285.384 190.268 285.412 184.671 C 285.416 183.869 285.437 181.335 285.459 179.04 C 285.48 176.746 285.392 174.167 285.262 173.311 C 285.132 172.455 284.85 169.973 284.635 167.796 C 284.309 164.497 283.748 161.045 282.976 157.589 L 282.836 156.965 L 282.115 158.214"
              stroke="none" fill-rule="evenodd" style="paint-order: stroke markers;"/>
        <path id="path1"
              d="M 279.333 153.407 C 279.397 153.573 279.339 154.238 279.204 154.886 C 278.975 155.99 278.987 156.083 279.395 156.369 C 279.976 156.775 279.953 156.953 279.102 158.641 C 277.767 161.292 278.41 161.327 279.82 158.68 C 280.202 157.965 280.556 157.565 280.848 157.521 C 281.881 157.366 282.371 155.295 281.556 154.531 C 280.782 153.806 279.174 152.993 279.333 153.407"
              stroke="none" fill-rule="evenodd" style="paint-order: stroke markers;"/>
        <path id="path1"
              d="M 274.079 151.693 C 274.059 154.012 274.098 154.368 274.33 154.029 C 274.776 153.378 275.303 152.9 275.576 152.9 C 275.717 152.9 275.93 152.619 276.049 152.275 C 276.314 151.515 276.482 151.504 277.543 152.174 C 278.775 152.951 278.548 152.64 277.07 151.526 C 276.354 150.986 275.393 150.187 274.935 149.751 L 274.102 148.958 L 274.079 151.693"
              stroke="none" fill-rule="evenodd" style="paint-order: stroke markers;"/>
        <path id="path1"
              d="M 254.15 142.034 C 254.214 142.97 254.103 144.093 253.808 145.486 C 253.569 146.621 253.372 147.671 253.372 147.82 C 253.372 147.968 254.194 148.513 255.197 149.032 C 256.982 149.953 262.666 153.584 265.968 155.911 L 267.625 157.079 L 268.745 154.834 C 271.041 150.227 271.98 147.431 271.319 147.166 C 271.131 147.09 269.242 146.372 267.122 145.57 C 265.003 144.767 261.534 143.455 259.414 142.652 C 257.294 141.849 255.221 141.07 254.808 140.92 L 254.056 140.648 L 254.15 142.034"
              stroke="none" fill-rule="evenodd" style="paint-order: stroke markers;"/>
        <path id="path1"
              d="M 223.112 137.917 C 222.595 138.218 222.602 138.242 224.102 141.346 C 224.846 142.887 225.458 144.219 225.462 144.306 C 225.465 144.392 225.755 144.779 226.107 145.166 L 226.746 145.868 L 228.393 145.773 C 230.303 145.662 230.423 145.595 229.958 144.886 C 229.634 144.391 229.506 144.359 227.852 144.359 C 225.807 144.359 225.952 144.503 224.804 141.331 C 224.077 139.32 224.115 139.179 225.43 139.002 C 226.453 138.865 226.638 138.231 225.755 137.895 C 225.064 137.633 223.579 137.645 223.112 137.917"
              stroke="none" fill-rule="evenodd" style="paint-order: stroke markers;"/>
        <path id="path1"
              d="M 169.359 138.246 C 167.942 139.255 168.428 140.236 170.768 141.084 C 171.57 141.375 172.386 141.677 172.581 141.754 C 172.849 141.861 173.008 141.72 173.237 141.172 C 173.403 140.774 173.83 140.277 174.185 140.067 C 175.041 139.561 175.006 139.458 173.841 139.029 C 173.297 138.829 172.315 138.447 171.66 138.179 C 170.193 137.579 170.301 137.576 169.359 138.246"
              stroke="none" fill-rule="evenodd" style="paint-order: stroke markers;"/>
        <path id="path1"
              d="M 223.899 135.525 C 221.954 136.035 220.286 136.528 220.193 136.622 C 219.916 136.898 220.392 138.588 221.479 141.193 C 222.039 142.533 222.786 144.37 223.141 145.274 C 223.887 147.18 225.293 149.135 225.95 149.182 C 227.057 149.26 228.749 148.905 232.747 147.756 C 234.086 147.371 237.331 145.67 237.331 145.354 C 237.331 145.234 236.86 144.673 236.286 144.108 L 235.241 143.079 L 233.13 143.83 C 230.494 144.767 230.574 144.711 230.985 145.338 C 231.463 146.068 231.158 146.293 229.463 146.463 C 228.691 146.541 227.66 146.673 227.172 146.758 C 225.702 147.014 223.037 142.941 221.948 138.772 L 221.602 137.445 L 222.227 136.945 C 223.066 136.273 225.029 136.224 225.664 136.859 C 226.222 137.416 228.577 137.034 228.58 136.385 C 228.581 136.244 227.522 134.542 227.459 134.583 C 227.446 134.592 225.844 135.016 223.899 135.525"
              stroke="none" fill-rule="evenodd" style="paint-order: stroke markers;"/>
        <path id="path1"
              d="M 213.914 119.544 C 213.014 119.685 212.496 120.232 212.89 120.626 C 213.185 120.921 215.56 119.904 215.354 119.572 C 215.215 119.346 215.187 119.346 213.914 119.544"
              stroke="none" fill-rule="evenodd" style="paint-order: stroke markers;"/>

    </g>
</svg>