<?xml version="1.0" encoding="utf-8"?>
<svg viewBox="1.613 -1.201 1279.719 1264.113" xmlns="http://www.w3.org/2000/svg">
  <g transform="matrix(0.1, 0, 0, -0.1, 1.488235, 1263.511719)" fill="#000000" stroke="none">
    <path d="M595 12636 c-131 -44 -266 -125 -335 -203 -106 -119 -173 -249 -225 -438 -36 -130 -36 -131 -32 -290 7 -227 27 -284 140 -402 l60 -61 7 -114 c9 -133 42 -253 102 -370 45 -86 143 -199 214 -246 30 -21 68 -63 114 -130 93 -134 161 -188 262 -206 30 -5 46 -19 88 -71 113 -144 225 -179 350 -108 l49 27 53 -50 c96 -91 197 -134 314 -134 l63 0 37 -55 c73 -110 165 -167 302 -187 45 -6 94 -19 110 -28 15 -9 54 -56 86 -104 32 -47 74 -100 94 -116 46 -38 142 -88 255 -133 48 -20 109 -52 136 -71 86 -63 162 -181 196 -301 32 -115 44 -134 63 -97 46 86 3 322 -100 546 -69 152 -124 307 -144 413 -24 120 -24 336 -1 421 19 71 22 112 8 112 -18 0 -100 -104 -130 -164 -34 -71 -66 -196 -81 -316 -12 -103 -23 -117 -68 -92 -65 35 -154 180 -188 307 -25 96 -29 247 -9 335 37 161 32 170 -45 93 -71 -73 -130 -245 -130 -386 0 -87 -15 -95 -71 -41 -103 100 -131 194 -128 427 1 81 0 150 -3 153 -32 31 -167 -171 -198 -296 -11 -42 -21 -65 -31 -65 -21 0 -78 122 -90 194 -11 69 -6 130 17 203 9 26 14 60 12 75 -3 26 -6 28 -51 27 -69 -1 -105 -40 -179 -191 -33 -68 -64 -123 -69 -123 -5 0 -21 24 -36 53 -27 50 -28 57 -28 212 -1 185 -1 185 -80 102 -86 -91 -137 -220 -151 -384 -5 -59 -10 -83 -20 -83 -21 0 -93 157 -110 240 -21 100 -13 224 22 330 15 46 23 87 19 97 -6 15 -14 10 -55 -34 -35 -38 -54 -70 -70 -120 -38 -117 -56 -111 -70 23 -12 111 2 257 32 341 26 73 20 88 -40 88 -29 0 -51 -11 -99 -48 -70 -54 -114 -118 -153 -227 -15 -41 -32 -76 -38 -78 -23 -7 -47 109 -47 223 1 170 49 312 142 415 24 26 43 54 43 62 0 46 -168 327 -211 354 -14 8 -84 -60 -114 -111 -32 -56 -64 -160 -84 -273 -29 -161 -59 -128 -80 86 -17 172 23 341 116 490 77 123 202 246 232 228 5 -4 12 -37 16 -74 23 -231 51 -328 140 -483 55 -97 91 -145 153 -211 44 -46 45 -47 32 -79 -8 -18 -29 -52 -47 -76 -51 -67 -48 -70 75 -75 113 -5 164 -20 170 -51 2 -10 -17 -40 -47 -73 -46 -50 -64 -84 -43 -84 4 0 50 9 102 20 111 23 150 25 150 7 0 -7 -18 -47 -39 -90 -46 -91 -69 -173 -53 -189 7 -7 16 -3 29 13 98 123 183 180 301 200 74 13 112 6 112 -20 0 -11 -20 -51 -44 -90 -72 -118 -144 -371 -105 -371 8 0 28 23 44 51 68 115 232 235 347 254 67 12 73 -5 34 -96 -18 -42 -39 -99 -45 -126 -16 -64 -19 -175 -6 -179 6 -2 23 22 40 53 34 65 128 170 191 214 60 41 144 73 158 59 7 -7 -4 -52 -38 -152 -46 -133 -48 -148 -48 -243 0 -99 14 -167 31 -149 5 5 21 45 36 89 49 146 100 231 200 330 90 90 189 155 235 155 20 0 21 -3 15 -42 -8 -47 -19 -80 -59 -175 -28 -66 -42 -142 -32 -169 10 -25 30 -3 64 69 62 133 184 247 347 327 106 52 163 66 189 47 15 -11 13 -22 -18 -115 -55 -162 -76 -276 -75 -399 2 -178 21 -206 64 -91 33 89 105 225 153 293 220 307 554 571 880 697 28 11 46 25 49 38 25 96 152 284 246 366 44 38 150 94 179 94 10 0 53 12 95 27 65 22 95 27 178 26 86 0 113 -5 194 -32 l93 -32 89 90 c99 100 141 132 245 184 192 96 329 87 395 -27 16 -28 41 -89 55 -136 35 -115 48 -144 98 -209 91 -118 177 -181 247 -181 30 0 31 1 24 33 -4 17 -9 107 -12 200 l-5 167 -56 39 c-85 57 -136 112 -168 177 -24 51 -28 75 -33 179 -3 66 -10 126 -14 132 -28 43 -246 47 -382 8 -174 -50 -195 -60 -428 -198 l-118 -70 -87 16 c-323 60 -498 10 -771 -222 -112 -95 -271 -310 -271 -367 0 -24 -50 -54 -140 -84 -52 -17 -120 -45 -150 -62 -98 -54 -245 -165 -322 -242 -85 -84 -74 -82 -233 -50 -93 19 -372 18 -545 -1 -329 -36 -403 -38 -575 -16 -88 11 -185 27 -215 36 -30 8 -70 15 -90 15 -21 0 -61 15 -100 36 -36 20 -82 42 -104 50 -21 8 -57 26 -80 40 -22 14 -73 44 -113 67 -39 23 -125 91 -191 150 -111 100 -124 116 -195 234 -93 159 -104 180 -133 267 -44 127 -57 226 -53 401 l4 160 -60 2 c-33 1 -78 -4 -100 -11z"/>
    <path d="M6850 12493 c-59 -10 -90 -25 -95 -46 -2 -12 -6 -65 -7 -117 -3 -81 -8 -105 -35 -162 -40 -84 -100 -151 -167 -182 -29 -14 -58 -31 -64 -38 -6 -8 -13 -61 -17 -118 -3 -58 -8 -144 -10 -191 -6 -101 -2 -106 73 -84 73 22 136 69 190 143 64 86 94 146 127 256 53 172 152 230 306 177 145 -49 296 -152 398 -269 29 -33 59 -63 66 -66 7 -2 46 7 87 21 58 20 93 26 168 26 83 0 110 -4 215 -37 147 -46 193 -71 279 -148 93 -84 149 -160 198 -273 46 -104 69 -127 152 -155 78 -25 258 -144 407 -269 253 -211 446 -474 535 -728 20 -56 38 -68 48 -30 11 44 6 266 -9 353 -9 49 -29 128 -45 175 -17 48 -30 94 -30 102 0 53 137 12 281 -84 114 -77 215 -186 263 -283 21 -42 41 -78 46 -81 30 -19 9 112 -54 326 -21 70 -9 78 61 43 39 -19 90 -61 159 -129 84 -84 107 -114 141 -185 23 -47 51 -120 62 -164 23 -91 34 -108 51 -76 9 16 11 64 8 159 -4 120 -8 147 -36 229 -33 96 -39 136 -22 147 12 8 115 -45 165 -85 60 -48 132 -138 167 -208 17 -34 36 -61 42 -59 29 10 -9 224 -60 337 -14 32 -23 64 -19 70 13 20 83 4 170 -39 101 -50 201 -140 241 -216 39 -74 59 -74 50 0 -12 104 -80 286 -137 367 -37 52 -28 61 59 56 125 -6 229 -65 313 -175 42 -56 66 -64 61 -22 -2 13 -25 70 -52 127 -62 128 -63 142 -12 142 47 0 154 -25 193 -45 64 -34 41 30 -45 123 -29 31 -29 33 -13 50 14 14 42 18 145 22 150 6 153 9 98 99 -20 32 -36 68 -36 79 0 12 16 38 36 59 49 53 135 175 177 253 66 121 118 306 129 460 2 24 8 36 21 38 30 6 102 -63 163 -155 119 -182 155 -290 156 -468 0 -135 -33 -298 -56 -274 -3 2 -23 78 -46 169 -44 175 -72 238 -126 291 -41 39 -38 41 -134 -93 -77 -107 -120 -188 -120 -226 0 -12 21 -48 47 -79 54 -67 86 -134 102 -218 7 -33 17 -76 22 -96 14 -57 11 -139 -11 -223 -31 -121 -39 -125 -69 -28 -36 118 -124 242 -195 276 -41 20 -105 21 -112 3 -3 -8 5 -49 18 -93 19 -66 23 -103 23 -224 0 -215 -17 -250 -62 -129 -33 90 -118 198 -138 177 -4 -4 3 -52 14 -109 36 -174 25 -322 -33 -453 -27 -60 -65 -120 -73 -113 -2 3 -6 50 -8 106 -2 66 -9 110 -18 124 -8 12 -20 40 -27 62 -38 121 -127 245 -174 245 -20 0 -20 -12 -1 -74 8 -27 15 -81 15 -121 0 -63 -5 -81 -40 -154 -23 -48 -45 -81 -52 -79 -7 3 -27 46 -44 96 -34 95 -56 134 -108 190 -36 38 -96 58 -126 42 -11 -6 -20 -12 -20 -14 0 -1 9 -38 20 -81 33 -130 22 -239 -35 -342 -45 -82 -59 -80 -79 7 -29 130 -149 323 -190 307 -15 -6 -16 -14 -10 -54 12 -70 9 -209 -6 -278 -7 -33 -25 -88 -40 -122 -34 -75 -117 -168 -135 -153 -7 6 -14 49 -18 108 -8 149 -69 308 -145 379 -14 12 -32 23 -40 23 -16 0 -14 -23 13 -120 36 -131 4 -364 -69 -494 -39 -69 -136 -176 -160 -176 -18 0 -23 17 -31 115 -9 99 -39 207 -85 300 -68 138 -174 235 -134 122 21 -56 24 -355 5 -447 -19 -99 -67 -239 -120 -358 -85 -187 -154 -397 -159 -482 -4 -80 6 -141 26 -148 13 -4 14 0 62 123 17 44 49 112 72 152 34 60 52 79 108 117 38 25 107 58 158 75 185 62 275 125 352 247 22 35 51 71 65 80 13 9 58 20 98 25 87 11 175 39 218 70 25 18 64 61 144 160 10 13 26 16 82 12 109 -8 215 36 322 132 l40 37 54 -31 c87 -50 176 -41 271 26 40 28 99 96 108 124 2 5 32 16 66 24 35 8 75 21 90 29 50 26 124 99 179 178 37 53 72 90 107 112 100 66 176 169 249 339 46 107 64 174 72 279 l7 83 73 75 c108 112 140 190 152 371 9 151 -24 318 -101 508 -68 167 -239 364 -371 426 -78 37 -216 69 -254 60 l-24 -6 6 -108 c15 -261 -47 -479 -202 -710 -115 -171 -237 -282 -434 -395 -158 -91 -303 -140 -532 -181 -269 -47 -342 -44 -730 25 -60 11 -164 22 -230 26 -108 6 -162 3 -386 -22 l-57 -7 -93 88 c-160 151 -345 274 -469 314 -57 18 -107 66 -140 136 -44 92 -133 206 -243 312 -162 156 -320 242 -485 264 -77 10 -109 8 -277 -13 l-90 -11 -112 76 c-256 174 -544 270 -723 240z"/>
    <path d="M1002 9890 c7 -23 196 -203 231 -221 21 -11 72 -28 114 -39 73 -18 79 -22 135 -84 68 -76 153 -123 238 -133 53 -6 58 -9 125 -81 84 -90 142 -122 228 -122 l58 0 72 -73 c64 -65 89 -81 219 -145 226 -112 253 -143 325 -377 42 -137 30 -298 -29 -385 -51 -75 -198 -91 -313 -35 -77 37 -211 170 -264 262 -23 39 -55 114 -72 165 -34 105 -41 117 -64 98 -49 -40 -190 -356 -211 -470 -7 -41 -25 -109 -39 -150 -55 -160 -95 -358 -95 -471 0 -47 2 -50 49 -84 57 -41 101 -95 101 -124 0 -11 -28 -53 -61 -93 l-61 -73 6 -68 c3 -37 19 -132 36 -210 16 -78 34 -171 40 -207 16 -92 73 -262 117 -350 81 -160 135 -226 320 -393 85 -77 173 -175 173 -193 0 -8 -11 -57 -25 -110 -19 -74 -25 -121 -25 -205 0 -125 9 -179 53 -306 31 -92 31 -92 12 -114 -33 -35 -163 -119 -249 -160 -161 -75 -336 -109 -569 -109 -73 0 -89 -3 -94 -17 -8 -20 50 -73 150 -135 38 -24 110 -70 161 -104 150 -100 211 -132 426 -224 213 -91 346 -138 487 -171 l81 -19 104 36 c131 46 400 177 498 242 150 101 220 182 157 182 -13 0 -63 -14 -113 -31 -105 -36 -351 -96 -428 -105 -30 -4 -91 -1 -137 6 -117 18 -165 64 -190 179 -12 59 6 145 47 221 40 73 198 231 269 267 74 39 202 73 271 73 69 0 186 -27 254 -58 117 -54 235 -214 260 -352 36 -192 31 -457 -12 -633 -37 -152 0 -132 92 49 75 148 132 232 231 338 89 95 147 142 160 129 6 -6 4 -41 -6 -99 -9 -49 -19 -165 -22 -259 -6 -181 8 -324 45 -454 18 -64 42 -93 42 -51 0 19 16 93 52 240 17 70 103 244 141 287 20 21 57 49 83 62 43 22 50 23 73 10 40 -22 89 -95 107 -157 34 -113 15 -386 -38 -556 -25 -80 -102 -234 -159 -318 -21 -31 -62 -76 -90 -100 -28 -24 -71 -60 -95 -80 -25 -21 -63 -42 -87 -49 -90 -24 -82 -48 25 -74 56 -14 95 -17 187 -12 144 8 209 24 336 87 119 58 222 141 294 236 100 133 223 415 207 477 -3 15 -10 27 -15 27 -5 0 -26 -22 -46 -50 -44 -60 -90 -100 -115 -100 -10 0 -32 11 -47 24 -27 23 -28 28 -28 108 1 154 67 289 165 340 61 33 109 35 166 9 68 -31 95 -88 178 -368 41 -137 77 -265 81 -284 13 -63 92 -213 139 -264 65 -70 74 -56 51 82 -31 188 -10 371 63 553 50 122 112 180 194 180 50 -1 111 -33 147 -79 18 -22 39 -41 46 -41 7 0 25 16 39 35 57 74 168 98 237 52 70 -47 153 -235 170 -387 12 -97 4 -251 -17 -358 -21 -101 -10 -114 50 -62 73 65 147 223 213 460 61 217 114 369 140 401 36 43 74 59 138 59 120 0 194 -73 236 -235 26 -98 25 -195 -2 -229 -33 -42 -73 -36 -128 22 -25 26 -54 62 -63 80 -42 79 -51 -12 -14 -139 74 -254 229 -465 430 -584 111 -66 178 -88 321 -109 152 -21 310 -1 310 40 0 11 -12 24 -30 33 -72 32 -179 106 -234 161 -97 95 -201 328 -236 528 -21 124 -21 387 2 444 22 57 69 125 95 139 38 21 91 -5 153 -74 95 -104 150 -245 186 -469 13 -87 32 -103 47 -40 53 219 57 250 60 412 2 116 -2 201 -14 288 -11 81 -13 127 -7 133 15 15 100 -56 169 -140 90 -110 150 -205 221 -348 35 -73 69 -135 74 -139 14 -8 11 81 -7 186 -34 198 -11 553 42 667 32 67 139 170 218 208 86 42 149 55 270 55 159 0 265 -41 365 -140 147 -145 213 -258 219 -375 5 -94 -23 -148 -93 -187 -59 -32 -157 -51 -217 -42 -74 11 -266 63 -422 115 -153 51 -176 56 -176 39 0 -40 71 -105 235 -215 108 -72 241 -140 424 -216 l125 -52 87 17 c199 38 502 143 694 242 309 158 530 302 530 345 0 24 0 24 -180 36 -223 14 -299 33 -470 117 -148 74 -255 153 -255 191 0 13 14 61 30 106 64 172 73 326 30 495 -32 125 -31 128 56 211 42 40 105 94 141 120 80 59 247 275 297 385 90 196 140 370 177 622 27 186 28 181 -36 253 -35 39 -55 70 -55 86 0 17 21 43 72 91 l71 67 -6 133 c-3 73 -15 180 -27 237 -67 332 -244 789 -305 789 -7 0 -25 -39 -40 -87 -37 -122 -81 -207 -138 -269 -61 -67 -156 -140 -226 -172 -46 -21 -63 -24 -130 -20 -108 7 -151 31 -188 105 -25 53 -28 67 -27 158 4 276 140 490 352 555 90 27 159 68 228 137 62 62 63 62 138 72 99 12 155 40 230 117 59 61 63 63 131 74 90 14 155 50 230 127 54 55 67 64 116 73 29 6 70 15 89 22 88 28 328 248 271 248 -5 0 -34 -16 -66 -35 -31 -19 -80 -39 -109 -46 -65 -14 -170 -8 -218 14 l-38 17 -22 -27 c-13 -16 -48 -53 -79 -83 -67 -66 -113 -84 -220 -85 l-76 0 -79 -82 c-71 -73 -84 -82 -132 -92 -29 -6 -73 -11 -97 -11 -42 0 -47 -3 -86 -52 -56 -72 -87 -95 -176 -130 -42 -16 -129 -55 -192 -86 -105 -51 -125 -66 -212 -152 -81 -82 -102 -110 -142 -191 -52 -106 -83 -213 -97 -341 -14 -122 15 -294 65 -385 40 -73 41 -79 19 -189 -16 -79 -15 -87 6 -220 44 -279 104 -385 259 -458 112 -52 131 -35 62 57 -51 68 -100 168 -103 209 l-3 33 80 6 c61 5 100 15 164 42 64 28 87 34 98 26 19 -16 60 -152 72 -243 15 -104 14 -177 -4 -330 -25 -211 -49 -263 -215 -470 -43 -54 -96 -133 -117 -174 -36 -72 -38 -80 -38 -171 0 -76 3 -96 14 -96 8 0 21 22 31 52 20 61 91 147 181 218 111 87 192 175 225 245 69 142 100 351 91 610 -6 182 -27 302 -80 460 -37 109 -27 105 -157 64 -109 -34 -239 -43 -293 -20 -67 28 -48 45 100 92 102 32 147 52 196 87 74 53 160 143 217 228 23 32 45 59 50 59 29 0 134 -269 170 -435 26 -124 22 -146 -38 -187 -72 -48 -102 -79 -102 -106 0 -14 23 -61 51 -104 28 -44 64 -109 81 -144 l30 -64 -12 -103 c-23 -200 -70 -371 -158 -573 -22 -51 -54 -113 -72 -138 -29 -43 -373 -366 -411 -386 -11 -7 -39 4 -95 36 -138 79 -157 81 -516 58 -141 -9 -248 8 -311 51 -79 53 -94 26 -24 -43 73 -72 237 -125 432 -141 128 -10 172 -22 265 -72 166 -88 259 -285 229 -482 -14 -92 -33 -137 -56 -137 -20 0 -157 135 -244 240 -33 40 -71 103 -98 163 l-44 97 -61 30 c-42 20 -94 34 -169 45 -197 28 -338 17 -537 -40 -64 -19 -136 -37 -161 -41 -24 -3 -85 -19 -134 -34 -182 -57 -414 -83 -535 -60 -74 14 -91 10 -74 -18 15 -25 166 -98 235 -112 71 -15 241 -8 370 15 366 66 444 76 437 53 -2 -6 -50 -41 -106 -77 -56 -36 -158 -105 -226 -153 -209 -148 -478 -268 -701 -312 -382 -76 -867 -24 -1167 125 -32 16 -60 29 -62 29 -3 0 -26 -27 -51 -60 -55 -71 -123 -125 -220 -174 -138 -69 -253 -68 -400 2 -92 45 -165 107 -220 187 -21 30 -46 55 -55 55 -10 0 -53 -16 -96 -36 -137 -64 -444 -125 -624 -124 -250 1 -529 41 -693 101 -155 56 -335 154 -477 260 -74 55 -188 134 -252 176 -65 42 -118 83 -118 91 0 21 107 10 236 -24 138 -36 172 -43 314 -59 219 -26 298 -18 435 44 46 21 65 35 65 48 0 17 -11 19 -147 19 -169 0 -263 16 -429 70 -60 19 -176 53 -259 76 -82 22 -172 47 -200 54 -150 42 -410 37 -546 -10 -80 -28 -87 -35 -138 -129 -80 -150 -306 -413 -347 -405 -44 8 -70 243 -40 356 8 29 25 71 39 95 53 90 180 184 292 216 22 7 103 16 180 21 139 9 274 38 347 76 46 24 108 84 108 105 0 24 -15 24 -51 -1 -48 -35 -137 -60 -208 -60 -36 0 -136 9 -221 20 -192 23 -282 16 -361 -30 -59 -35 -115 -60 -136 -60 -15 0 -165 134 -292 260 -73 73 -167 213 -205 304 -54 131 -127 346 -136 402 -6 32 -10 114 -11 182 l0 122 81 111 c97 134 101 158 41 212 -22 20 -53 43 -70 52 -76 39 -67 116 47 400 97 242 109 254 163 157 40 -72 141 -193 196 -233 66 -50 114 -73 206 -98 138 -38 167 -65 105 -97 -46 -24 -168 -12 -278 27 -121 43 -136 45 -149 21 -18 -33 -61 -176 -81 -270 -31 -140 -43 -302 -35 -462 8 -171 25 -272 66 -386 28 -76 38 -91 118 -171 47 -48 128 -126 178 -173 79 -74 94 -93 113 -147 13 -35 28 -63 35 -63 25 0 27 89 6 173 -27 103 -77 196 -156 286 -205 235 -261 603 -144 958 29 88 34 91 116 50 92 -46 136 -59 202 -61 l56 -1 -3 -35 c-4 -49 -46 -135 -98 -202 -24 -31 -44 -63 -44 -72 0 -46 145 18 213 94 119 132 177 355 155 592 l-11 117 37 63 c24 40 47 99 63 163 22 85 25 114 20 195 -15 245 -111 450 -290 615 -56 53 -100 81 -216 139 -80 40 -165 80 -189 89 -32 13 -54 33 -93 87 -28 38 -52 70 -53 71 0 0 -28 2 -61 5 -136 12 -192 43 -282 159 -27 35 -35 39 -68 37 -60 -4 -146 18 -192 49 -22 16 -68 58 -101 95 -59 66 -60 66 -88 51 -81 -40 -214 -27 -317 33 -71 41 -91 48 -85 30z"/>
    <path d="M5946 9508 c-67 -233 -73 -624 -15 -951 20 -118 54 -244 71 -264 5 -7 35 -11 71 -11 74 1 123 -21 182 -81 36 -38 64 -52 66 -33 0 4 2 79 4 167 l4 160 -60 75 c-159 200 -253 493 -266 838 -5 138 -8 152 -24 152 -14 0 -22 -14 -33 -52z"/>
    <path d="M6756 9433 c-15 -274 -93 -565 -198 -740 -18 -31 -63 -86 -100 -122 l-68 -66 0 -166 c0 -206 6 -217 78 -147 67 65 98 78 187 78 87 0 77 -11 121 140 77 264 98 697 50 995 -19 113 -30 145 -49 145 -11 0 -16 -28 -21 -117z"/>
    <path d="M3426 9084 c-155 -30 -199 -90 -193 -266 2 -87 6 -103 37 -165 24 -47 42 -69 56 -71 19 -3 21 2 21 70 -1 59 4 82 25 124 34 65 116 129 200 156 76 25 201 27 271 5 43 -14 49 -14 54 0 7 18 -38 59 -109 98 -47 26 -209 65 -263 64 -16 -1 -61 -7 -99 -15z"/>
    <path d="M9120 9000 c-82 -10 -136 -29 -206 -71 -89 -54 -99 -98 -17 -73 129 39 302 -1 404 -93 58 -53 81 -104 88 -197 3 -46 11 -81 17 -83 28 -9 101 146 111 233 8 73 -19 159 -65 205 -68 67 -194 97 -332 79z"/>
    <path d="M3890 8694 c-36 -7 -87 -22 -115 -33 -27 -11 -67 -25 -87 -31 -49 -15 -183 -96 -260 -158 -175 -141 -240 -247 -242 -397 -1 -99 24 -151 102 -209 44 -33 52 -44 52 -72 0 -45 -51 -108 -123 -152 -50 -31 -68 -36 -138 -40 -56 -3 -82 -9 -86 -18 -9 -23 16 -168 41 -241 56 -165 159 -313 216 -313 19 0 10 33 -24 89 -42 69 -74 163 -82 240 -8 68 -2 74 81 85 161 21 277 158 376 445 38 109 86 187 162 259 69 65 136 86 247 80 70 -4 91 -11 216 -70 135 -64 142 -66 239 -72 55 -4 148 -2 207 3 134 13 209 2 306 -44 41 -19 78 -32 83 -29 52 32 -134 210 -285 273 -56 23 -78 26 -261 32 -224 7 -271 18 -354 84 -53 42 -80 48 -218 43 -104 -3 -112 -5 -168 -38 -75 -45 -172 -140 -216 -213 -18 -31 -37 -57 -41 -57 -18 0 -30 47 -25 101 6 74 61 179 128 246 43 43 69 58 182 103 73 29 154 64 180 77 83 41 35 55 -93 27z"/>
    <path d="M8710 8622 c0 -6 53 -36 118 -66 236 -112 240 -115 304 -189 33 -39 67 -86 75 -105 32 -77 36 -207 6 -207 -6 0 -41 38 -76 85 -82 110 -153 173 -225 201 -47 19 -77 23 -167 24 -108 0 -111 -1 -184 -38 -130 -68 -138 -70 -346 -72 -163 -2 -199 -5 -255 -23 -92 -31 -159 -72 -240 -148 -105 -100 -93 -138 26 -83 67 31 73 32 214 33 80 1 188 -3 240 -8 125 -12 177 0 319 71 98 50 123 58 182 61 134 8 233 -48 320 -181 20 -31 65 -124 99 -205 98 -233 116 -268 161 -317 57 -62 110 -91 200 -111 80 -18 89 -25 89 -68 0 -47 -59 -207 -95 -258 -51 -70 -43 -109 15 -78 32 17 136 184 170 271 37 95 62 208 58 253 -3 31 -3 31 -78 37 -125 10 -217 64 -255 149 -24 54 -14 83 39 114 58 34 83 70 102 149 20 80 9 144 -43 250 -57 114 -240 279 -401 361 -107 54 -372 124 -372 98z"/>
    <path d="M5746 8261 c-3 -5 9 -31 27 -57 101 -147 183 -325 217 -469 42 -180 50 -412 20 -590 -33 -200 -140 -320 -286 -320 -86 0 -205 60 -290 145 -59 58 -62 65 -98 179 l-37 118 -58 11 c-33 6 -71 18 -85 27 -40 27 -112 143 -152 246 -20 52 -48 117 -61 144 -58 116 -183 260 -219 253 -20 -4 -20 -7 -8 -90 5 -40 2 -57 -20 -103 -18 -35 -35 -57 -49 -60 -14 -4 -62 12 -132 44 -153 70 -215 84 -344 79 -94 -3 -114 -7 -173 -35 -104 -49 -151 -86 -308 -239 -80 -78 -161 -150 -180 -160 -19 -10 -62 -23 -95 -29 -60 -11 -60 -11 -63 -48 -4 -51 24 -207 53 -292 14 -39 25 -86 25 -103 0 -31 -1 -32 -42 -32 -80 1 -184 68 -304 198 -69 75 -90 77 -81 7 16 -111 100 -239 210 -316 91 -64 131 -85 236 -123 l84 -31 36 -70 c51 -99 91 -153 160 -218 134 -123 295 -172 571 -172 143 0 165 3 279 33 68 17 134 32 148 32 30 0 92 31 117 59 24 27 23 27 -134 -1 -195 -35 -307 -28 -444 29 -116 48 -246 150 -321 253 -67 91 -122 261 -126 386 -2 60 4 84 21 84 4 0 20 -37 35 -82 34 -102 93 -225 140 -288 62 -85 182 -150 276 -150 55 0 59 19 14 54 -74 58 -170 161 -197 211 -93 174 -103 398 -23 554 49 98 95 100 95 4 0 -79 27 -199 62 -273 40 -84 168 -213 250 -253 69 -33 166 -59 190 -51 19 6 25 34 7 34 -21 0 -114 51 -142 78 -40 37 -72 96 -97 172 -33 106 -36 167 -11 250 12 40 26 69 30 64 4 -5 15 -38 25 -72 34 -130 100 -215 185 -240 78 -24 127 -13 195 43 24 19 48 35 54 35 6 0 18 -20 28 -45 23 -61 14 -110 -31 -184 -33 -52 -36 -63 -24 -77 18 -22 87 -14 174 21 l66 27 39 -36 c21 -19 58 -47 82 -62 66 -42 88 -65 88 -91 0 -37 -44 -115 -100 -176 -57 -63 -62 -90 -16 -95 47 -6 186 44 260 93 38 25 73 45 79 45 6 0 8 -27 5 -70 -10 -132 -104 -277 -215 -332 -39 -19 -66 -23 -141 -24 l-92 -2 -107 -102 c-60 -57 -131 -119 -160 -138 -78 -52 -87 -97 -53 -262 21 -99 72 -216 113 -262 69 -75 162 -120 182 -88 3 5 -17 32 -44 59 -28 28 -58 65 -67 83 -24 46 -44 125 -44 174 0 77 15 99 113 168 51 35 128 91 171 125 90 68 89 68 134 -12 37 -65 123 -147 188 -179 67 -34 142 -52 159 -38 10 8 0 23 -45 68 -100 101 -119 211 -62 379 34 99 143 326 164 340 7 4 42 8 78 8 88 0 180 45 260 126 31 33 60 59 65 59 4 0 37 -31 74 -70 90 -96 107 -96 207 1 l73 72 71 -76 c92 -99 152 -130 256 -132 40 -1 75 -3 77 -6 17 -24 120 -248 136 -297 34 -104 46 -212 32 -275 -15 -68 -59 -139 -106 -169 -47 -31 -42 -54 12 -51 53 2 171 62 230 116 25 23 63 68 85 100 26 38 45 57 54 53 22 -9 253 -187 300 -231 58 -56 71 -105 48 -187 -20 -70 -78 -162 -123 -196 -42 -30 -42 -62 -1 -62 124 0 251 193 279 426 15 126 9 149 -48 179 -46 25 -208 175 -246 229 -20 28 -23 29 -115 30 -85 1 -101 4 -148 30 -69 39 -137 112 -172 189 -32 66 -58 213 -42 229 5 5 28 -7 58 -32 80 -67 181 -112 264 -118 95 -6 94 6 -8 122 -41 47 -85 137 -76 159 3 9 26 28 50 42 24 14 71 49 105 76 38 32 67 49 77 46 9 -3 44 -17 77 -31 66 -28 142 -34 151 -12 3 7 -9 37 -27 66 -39 64 -49 137 -26 193 19 44 29 46 71 10 44 -37 88 -53 143 -53 63 0 143 38 177 83 30 39 66 125 66 156 0 11 5 32 10 46 28 75 72 -90 53 -199 -31 -178 -123 -304 -245 -337 -21 -5 -38 -14 -38 -20 0 -36 120 -15 235 40 141 69 240 199 285 375 11 44 20 100 20 126 0 25 6 54 13 64 12 17 15 16 42 -15 107 -127 115 -323 25 -558 -34 -87 -100 -164 -196 -228 -51 -34 -68 -63 -44 -78 16 -10 131 15 188 40 99 45 196 181 266 374 17 47 36 84 41 83 28 -7 -8 -273 -50 -368 -45 -103 -203 -244 -350 -315 -141 -69 -275 -85 -413 -50 -43 11 -106 25 -142 31 -36 6 -73 13 -82 16 -10 3 -18 1 -18 -5 0 -19 85 -61 164 -81 42 -11 109 -31 149 -46 57 -21 103 -28 226 -37 185 -13 283 -2 412 47 164 61 274 159 358 317 39 71 54 83 124 98 106 23 212 85 309 181 92 91 139 170 153 258 10 65 -15 55 -120 -48 -103 -100 -175 -141 -262 -148 -52 -4 -53 -4 -53 22 0 14 16 72 35 129 41 124 64 283 43 302 -7 7 -48 20 -90 30 l-78 16 -182 182 c-208 207 -251 237 -378 263 -139 28 -237 17 -395 -44 -180 -69 -178 -69 -207 -5 -17 38 -20 60 -16 125 3 43 1 81 -3 83 -10 7 -100 -66 -137 -110 -39 -48 -121 -196 -177 -320 -23 -53 -54 -113 -68 -133 -28 -43 -89 -77 -161 -89 l-49 -8 -29 -89 c-15 -49 -38 -104 -49 -122 -58 -95 -255 -224 -341 -224 -68 0 -120 21 -169 70 -90 89 -126 206 -136 435 -12 301 52 537 220 801 101 160 101 173 -1 108 -80 -51 -199 -175 -256 -266 -138 -223 -205 -568 -176 -917 l12 -151 -27 -35 c-14 -20 -44 -47 -65 -61 l-39 -26 -40 23 c-23 12 -52 40 -67 60 l-26 38 12 178 c25 353 -15 623 -121 836 -70 141 -163 253 -275 333 -63 45 -78 51 -88 35z"/>
    <path d="M5293 5575 c-19 -13 -23 -26 -23 -68 1 -85 53 -180 133 -238 55 -40 78 -37 125 13 38 39 44 42 104 46 38 2 127 -6 219 -19 159 -25 320 -31 329 -14 3 6 -34 12 -98 16 -101 5 -105 6 -215 62 -62 31 -150 81 -196 112 -112 73 -178 98 -276 102 -62 3 -85 1 -102 -12z"/>
    <path d="M7211 5560 c-24 -5 -114 -49 -200 -97 -262 -147 -311 -164 -441 -163 -98 2 -94 2 -80 -15 15 -18 145 -21 231 -5 30 5 109 16 177 24 151 17 181 11 239 -50 24 -24 51 -44 62 -44 30 0 142 81 178 128 39 51 62 140 45 177 -17 37 -129 61 -211 45z"/>
    <path d="M5481 3823 c-62 -157 -68 -473 -10 -639 25 -74 42 -190 37 -259 -2 -33 -19 -116 -37 -185 -31 -115 -33 -133 -28 -225 4 -58 15 -126 26 -163 12 -35 21 -86 21 -112 0 -102 -119 -368 -232 -520 -34 -46 -106 -128 -161 -183 l-99 -100 7 -46 c7 -49 58 -189 83 -231 27 -43 95 -110 113 -110 25 0 222 -104 295 -156 64 -45 136 -119 184 -189 15 -22 60 -123 100 -225 40 -102 85 -203 100 -225 52 -75 143 -151 241 -201 88 -45 99 -48 169 -48 65 0 85 4 150 35 141 68 248 165 304 278 13 25 36 84 51 131 80 244 193 374 423 485 74 36 145 68 157 71 13 3 42 22 65 41 47 41 120 181 145 281 l17 64 -94 96 c-119 123 -213 256 -329 467 -64 117 -77 314 -29 435 32 81 30 200 -5 300 -26 73 -27 80 -22 250 4 155 7 184 30 252 60 177 57 573 -5 612 -27 17 -41 -6 -83 -142 l-39 -123 19 -52 c14 -37 19 -76 19 -137 -1 -88 -7 -109 -70 -272 -44 -114 -46 -204 -8 -334 34 -114 36 -213 6 -306 -11 -36 -24 -95 -27 -130 -13 -135 -24 -139 -89 -34 -66 106 -234 323 -290 375 -30 27 -51 40 -57 34 -6 -6 0 -56 15 -134 35 -171 54 -444 37 -538 -20 -111 -41 -91 -62 58 -13 92 -33 138 -55 123 -5 -4 -43 -51 -82 -104 -44 -61 -79 -98 -90 -98 -12 0 -28 21 -49 63 -40 80 -89 147 -108 147 -8 0 -17 -10 -19 -22 -52 -256 -76 -290 -88 -127 -12 152 9 356 53 531 23 91 24 118 5 118 -29 0 -254 -262 -354 -413 -25 -37 -50 -66 -56 -64 -6 2 -14 39 -18 83 -4 43 -15 111 -25 149 -23 93 -21 182 8 285 33 120 33 290 0 370 -55 129 -66 262 -35 397 l17 71 -27 79 c-41 117 -77 193 -91 193 -7 0 -18 -12 -24 -27z"/>
  </g>
</svg>