<svg id="svg" version="1.1" xmlns="http://www.w3.org/2000/svg"
     width="400"
     height="225"
     viewBox="0, 0, 400,225">
    <g id="svgg">
        <path id="path1"
              d="M115.208 18.867 C 109.908 19.886,107.345 20.529,104.075 21.662 C 101.414 22.584,99.055 23.216,95.840 23.866 L 93.034 24.435 90.582 24.090 C 87.405 23.645,86.022 23.118,84.673 21.843 C 83.415 20.653,83.263 20.623,82.903 21.491 C 82.159 23.287,85.289 28.667,87.571 29.515 C 88.321 29.794,89.585 29.870,89.581 29.635 C 89.572 29.099,88.927 27.186,88.548 26.572 C 87.427 24.759,87.893 24.533,91.875 24.959 C 94.742 25.266,96.804 24.937,102.604 23.247 C 108.513 21.524,113.747 20.486,118.569 20.081 C 122.019 19.790,125.761 21.103,130.417 24.236 C 135.182 27.443,137.456 29.286,143.438 34.789 C 145.771 36.936,149.482 41.112,150.833 43.112 C 156.411 51.366,159.350 56.842,160.101 60.379 C 160.376 61.675,160.467 60.860,160.206 59.437 C 158.652 50.950,152.502 39.182,147.159 34.468 C 146.258 33.673,144.630 32.189,143.542 31.171 C 132.032 20.399,124.423 17.095,115.208 18.867 M70.212 20.820 C 70.014 21.556,70.065 21.819,70.714 23.386 C 71.847 26.124,73.204 28.967,73.920 30.104 C 74.947 31.736,74.704 31.026,73.199 27.998 C 71.482 24.544,71.281 23.431,72.270 22.854 L 72.913 22.478 72.592 21.708 C 71.758 19.710,70.625 19.287,70.212 20.820 M140.088 21.224 C 140.144 21.315,140.592 21.662,141.083 21.997 C 148.111 26.779,153.402 31.540,156.460 35.833 C 157.072 36.693,158.022 37.975,158.571 38.683 C 162.175 43.329,165.952 51.667,164.452 51.667 C 163.682 51.667,162.450 49.894,159.891 45.104 C 156.768 39.259,150.127 32.198,142.083 26.172 C 138.122 23.204,138.925 24.329,143.438 28.068 C 151.315 34.597,155.463 39.483,160.374 48.016 C 163.783 53.940,163.905 54.392,163.519 59.688 C 162.845 68.921,161.136 75.124,157.885 80.145 C 157.276 81.086,157.087 81.559,157.191 81.885 C 157.296 82.217,157.173 82.504,156.716 82.990 C 155.958 83.796,154.977 85.255,155.106 85.384 C 155.158 85.436,155.898 84.902,156.750 84.198 C 159.019 82.321,159.609 82.482,158.750 84.742 C 158.078 86.511,158.276 87.149,159.234 86.302 C 159.636 85.946,159.642 85.952,159.483 86.563 C 158.246 91.314,157.948 98.582,158.847 102.083 C 159.907 106.212,158.932 107.582,154.444 108.269 C 153.317 108.442,152.161 108.691,151.875 108.823 C 150.581 109.421,149.556 113.410,150.625 113.690 C 151.590 113.942,150.550 115.138,149.213 115.313 C 147.664 115.516,147.329 115.722,147.199 116.553 C 147.135 116.959,147.034 117.609,146.974 117.998 C 146.842 118.850,146.336 119.091,144.375 119.233 C 143.091 119.326,140.004 120.530,139.671 121.068 C 139.442 121.440,140.265 121.508,140.964 121.175 C 143.088 120.162,143.404 121.387,142.140 125.729 C 141.283 128.675,140.491 129.218,136.563 129.558 L 134.896 129.701 135.729 129.968 C 140.736 131.572,144.411 128.893,145.194 123.071 C 145.471 121.014,146.233 119.433,147.033 119.255 C 148.175 119.001,148.447 118.894,148.958 118.496 C 149.683 117.931,149.984 117.320,149.993 116.395 C 149.999 115.712,150.083 115.575,150.603 115.393 C 151.544 115.065,152.708 113.124,152.708 111.884 C 152.708 109.611,153.717 108.668,156.485 108.354 C 159.951 107.960,161.018 106.481,160.300 103.065 C 159.689 100.156,159.596 99.182,159.571 95.423 C 159.555 92.968,159.621 91.758,159.774 91.707 C 159.898 91.666,160.000 91.499,160.000 91.337 C 160.000 90.972,160.245 90.958,160.609 91.302 C 160.830 91.511,160.905 91.509,160.984 91.293 C 161.064 91.073,161.142 91.073,161.409 91.293 C 161.698 91.532,161.706 91.509,161.478 91.081 L 161.222 90.600 161.913 90.949 L 162.604 91.299 161.875 90.523 L 161.146 89.748 161.875 90.186 C 162.995 90.858,163.318 90.706,162.323 89.975 C 161.340 89.252,161.280 88.990,162.209 89.474 C 163.187 89.984,163.497 89.837,162.653 89.263 C 161.783 88.673,161.612 88.223,162.344 88.452 C 162.602 88.533,162.953 88.643,163.125 88.697 C 163.297 88.750,163.137 88.601,162.769 88.364 L 162.100 87.933 162.486 86.813 C 163.068 85.121,163.500 84.363,164.469 83.333 C 166.141 81.557,166.428 80.828,167.792 74.896 C 168.797 70.524,168.832 70.206,168.843 65.313 C 168.871 53.322,167.089 45.767,162.857 39.937 C 158.239 33.577,154.461 29.926,147.645 25.237 C 145.225 23.572,139.738 20.658,140.088 21.224 M77.605 28.540 C 77.301 29.032,82.167 34.451,83.193 34.762 C 84.268 35.089,87.507 35.226,88.854 35.001 C 93.362 34.247,100.968 34.083,103.333 34.687 C 103.709 34.783,103.767 34.765,103.542 34.621 C 101.909 33.579,97.188 33.024,92.414 33.313 C 84.769 33.775,85.394 33.796,83.807 33.023 C 82.779 32.522,81.839 31.792,80.344 30.334 C 78.371 28.411,77.883 28.091,77.605 28.540 M73.840 38.377 C 74.385 43.335,78.798 47.949,84.479 49.502 C 87.184 50.241,87.635 49.719,85.104 48.779 C 80.380 47.024,77.030 43.844,74.318 38.542 L 73.732 37.396 73.840 38.377 M114.386 39.411 C 114.793 39.792,115.918 40.713,116.886 41.457 C 117.854 42.202,120.661 44.793,123.125 47.216 C 125.589 49.639,128.026 51.984,128.542 52.427 C 129.057 52.870,130.789 54.591,132.389 56.251 C 136.503 60.519,136.609 60.625,136.768 60.625 C 136.999 60.625,135.316 57.628,134.347 56.312 C 133.075 54.586,128.053 49.624,125.000 47.077 C 123.568 45.881,121.650 44.262,120.739 43.479 C 119.072 42.045,116.617 40.345,114.688 39.288 L 113.646 38.718 114.386 39.411 M93.449 52.690 C 93.284 52.957,94.788 54.201,96.519 55.230 C 97.319 55.705,98.312 56.393,98.726 56.758 C 99.140 57.124,100.089 57.883,100.833 58.445 C 104.344 61.094,107.620 64.087,110.275 67.072 C 114.476 71.795,120.992 78.429,120.312 77.292 C 119.602 76.104,115.813 71.103,113.774 68.662 C 113.016 67.755,112.014 66.536,111.547 65.954 C 110.351 64.462,106.608 60.967,105.000 59.840 C 104.255 59.318,103.123 58.491,102.485 58.002 C 101.846 57.513,99.761 56.173,97.853 55.024 C 93.535 52.425,93.593 52.456,93.449 52.690 M91.322 62.031 C 91.390 63.378,91.506 65.007,91.580 65.652 C 91.715 66.835,91.365 68.756,90.741 70.255 C 90.584 70.630,90.393 71.406,90.316 71.979 C 90.074 73.786,88.920 77.736,88.600 77.859 C 88.434 77.923,88.210 78.173,88.102 78.414 C 87.498 79.770,88.522 73.358,89.164 71.771 C 90.692 67.989,90.732 65.804,89.328 62.712 C 89.095 62.199,88.778 61.402,88.624 60.941 C 88.370 60.183,88.355 60.360,88.459 62.823 C 88.583 65.734,88.425 66.633,87.000 71.146 C 85.285 76.579,84.433 84.509,85.175 88.125 C 86.032 92.294,86.361 95.099,86.291 97.631 L 86.250 99.116 84.427 99.209 C 83.222 99.271,82.251 99.452,81.563 99.742 C 80.990 99.983,79.958 100.337,79.271 100.528 C 77.320 101.070,76.848 101.682,74.484 106.729 C 73.964 107.840,72.729 111.834,72.714 112.451 C 72.709 112.669,74.706 115.761,76.345 118.071 C 77.366 119.511,85.397 125.923,85.744 125.575 C 85.792 125.528,86.057 124.575,86.333 123.458 C 86.610 122.341,86.889 121.375,86.953 121.311 C 87.115 121.149,82.551 116.425,80.442 114.572 C 79.481 113.729,78.811 113.000,78.953 112.953 C 79.094 112.906,79.786 113.426,80.490 114.109 C 83.234 116.769,87.316 120.208,87.730 120.208 C 87.872 120.208,88.511 119.755,89.151 119.200 C 89.790 118.646,90.523 118.080,90.781 117.943 C 91.524 117.548,91.339 117.276,89.307 115.779 C 86.969 114.057,81.710 109.331,81.023 108.335 C 78.855 105.193,78.519 104.276,78.958 102.696 C 79.424 101.019,82.130 99.856,85.707 99.798 C 86.395 99.787,86.079 101.775,84.682 106.250 C 83.536 109.921,83.462 109.473,85.539 111.440 C 86.534 112.382,87.424 113.076,87.517 112.982 C 87.726 112.772,88.311 107.950,88.384 105.833 L 88.438 104.271 88.718 105.833 C 88.872 106.693,89.047 108.968,89.106 110.889 C 89.213 114.309,89.226 114.391,89.736 114.793 C 90.272 115.214,90.625 115.180,90.625 114.707 C 90.625 114.560,90.814 114.269,91.044 114.060 C 92.981 112.308,94.071 99.990,92.540 97.162 C 91.491 95.226,90.518 93.774,90.369 93.923 C 90.078 94.214,88.755 98.197,88.731 98.854 C 88.719 99.198,88.626 99.714,88.525 100.000 C 88.188 100.954,88.541 97.293,89.057 94.471 C 89.518 91.953,89.546 91.414,89.433 87.059 C 89.311 82.317,89.631 79.756,90.406 79.278 C 90.511 79.212,90.749 78.639,90.933 78.004 C 91.303 76.733,92.127 75.116,93.197 73.559 C 94.791 71.242,94.250 63.944,92.258 60.886 C 91.159 59.199,91.178 59.175,91.322 62.031 M96.808 68.807 C 96.737 69.644,96.525 71.028,96.336 71.883 C 95.914 73.794,95.887 78.317,96.296 78.570 C 96.573 78.741,97.460 78.596,97.813 78.322 C 98.326 77.923,98.005 68.858,97.448 68.038 L 96.937 67.286 96.808 68.807 M98.125 101.793 C 98.125 103.958,98.193 104.587,98.467 104.979 C 98.755 105.390,98.791 105.847,98.693 107.838 C 98.505 111.649,100.041 110.880,100.721 106.822 C 100.832 106.163,100.748 105.889,100.187 105.074 C 99.665 104.314,99.488 103.789,99.362 102.626 C 99.261 101.694,99.002 100.766,98.663 100.121 L 98.125 99.096 98.125 101.793 M71.606 115.366 C 71.189 116.482,70.738 117.682,70.603 118.031 C 70.371 118.631,70.424 118.764,71.563 120.427 C 73.374 123.070,73.908 123.696,74.969 124.421 C 75.502 124.785,76.871 125.863,78.012 126.816 C 80.696 129.057,85.187 131.772,84.878 130.966 C 84.808 130.784,84.915 129.728,85.114 128.619 C 85.468 126.655,85.467 126.594,85.083 126.318 C 82.966 124.796,81.522 123.609,80.190 122.292 C 79.321 121.432,78.055 120.306,77.378 119.790 C 76.447 119.080,75.710 118.203,74.360 116.199 C 73.378 114.740,72.527 113.499,72.469 113.441 C 72.411 113.383,72.023 114.249,71.606 115.366 M70.175 119.894 C 70.119 119.951,70.160 120.600,70.266 121.338 L 70.458 122.679 67.744 125.663 C 62.572 131.346,59.303 133.190,53.554 133.670 C 51.634 133.830,51.573 133.901,52.691 134.675 C 54.434 135.884,56.815 138.687,56.592 139.269 C 56.279 140.084,54.441 139.666,53.841 138.642 C 53.175 137.506,50.124 134.781,48.799 134.140 C 47.509 133.515,37.137 133.443,32.463 134.026 C 27.423 134.654,23.099 136.486,23.836 137.679 C 23.966 137.890,24.188 137.874,27.917 137.381 C 37.686 136.092,41.167 136.508,49.375 139.951 C 51.266 140.744,53.703 141.704,54.792 142.083 C 58.726 143.455,60.058 144.405,60.540 146.184 C 60.656 146.611,60.751 146.632,62.080 146.520 C 63.892 146.369,64.397 146.509,64.833 147.285 C 65.236 148.000,65.752 147.929,66.982 146.991 C 67.328 146.727,68.594 145.991,69.795 145.355 C 75.368 142.406,75.686 142.206,75.924 141.499 C 76.050 141.124,76.439 140.651,76.802 140.430 C 77.161 140.212,77.515 139.936,77.588 139.817 C 77.662 139.698,78.493 139.081,79.434 138.447 C 80.376 137.813,81.661 136.918,82.292 136.459 C 82.922 136.000,83.836 135.461,84.322 135.260 C 85.564 134.749,85.606 134.792,81.979 132.873 C 80.948 132.328,80.169 131.880,80.249 131.878 C 80.328 131.876,81.249 132.162,82.295 132.512 C 85.117 133.458,86.544 133.074,84.337 131.964 C 81.931 130.753,80.288 129.641,78.055 127.712 C 76.773 126.604,75.116 125.252,74.372 124.707 C 73.387 123.986,72.670 123.207,71.729 121.834 C 70.258 119.690,70.312 119.757,70.175 119.894 M119.500 124.352 C 118.600 124.493,118.082 125.040,118.476 125.434 C 118.771 125.729,121.146 124.712,120.940 124.380 C 120.801 124.154,120.773 124.154,119.500 124.352 M124.010 126.661 C 123.194 127.031,123.125 127.125,123.126 127.854 C 123.126 128.290,122.848 129.302,122.508 130.104 C 121.363 132.806,120.784 134.264,120.271 135.729 C 119.991 136.531,119.616 137.300,119.437 137.438 C 118.375 138.260,117.687 142.013,118.444 142.853 L 118.971 143.438 118.834 142.427 C 118.662 141.164,119.268 138.947,119.825 138.802 C 120.029 138.748,120.347 138.279,120.545 137.738 C 123.151 130.620,122.767 131.246,125.758 129.229 C 128.498 127.381,128.421 127.519,127.107 126.804 C 125.904 126.149,125.209 126.117,124.010 126.661 M128.184 129.025 C 127.636 129.537,126.781 130.166,126.285 130.424 C 125.237 130.969,124.878 131.629,124.080 134.479 C 123.791 135.510,123.414 136.806,123.241 137.357 C 122.747 138.941,123.627 138.695,124.222 137.083 C 125.392 133.914,129.265 130.192,130.157 131.381 C 130.801 132.239,130.070 134.921,128.722 136.643 C 128.004 137.560,128.236 137.805,129.256 137.207 C 130.392 136.542,130.496 136.541,131.711 137.188 C 132.918 137.830,133.265 137.841,133.447 137.240 C 133.524 136.982,133.725 136.474,133.892 136.112 C 134.180 135.490,134.165 135.403,133.617 134.550 C 132.914 133.455,131.043 131.018,130.684 130.729 C 130.477 130.564,130.484 130.350,130.718 129.688 C 131.304 128.024,129.705 127.606,128.184 129.025 M133.244 133.177 C 133.675 133.779,134.202 134.509,134.416 134.799 C 134.776 135.290,134.782 135.393,134.492 136.215 L 134.179 137.102 137.037 140.156 C 142.224 145.697,144.292 147.462,147.919 149.441 C 149.122 150.097,155.281 152.477,156.016 152.568 C 156.519 152.631,156.879 151.043,156.996 148.239 C 157.149 144.584,157.087 144.411,155.405 143.848 C 151.497 142.539,140.945 137.195,135.532 133.783 C 132.353 131.780,132.218 131.744,133.244 133.177 M83.120 137.332 C 82.375 138.360,82.335 138.320,84.793 138.983 C 85.920 139.286,87.017 139.441,87.813 139.408 C 88.500 139.380,89.883 139.342,90.885 139.324 C 92.163 139.301,92.708 139.215,92.708 139.037 C 92.708 138.770,92.365 138.673,90.302 138.356 C 89.609 138.249,87.904 137.778,86.513 137.310 C 83.469 136.285,83.880 136.282,83.120 137.332 M132.969 137.980 C 132.062 138.255,132.109 138.341,133.550 139.023 C 134.523 139.485,135.197 140.061,136.716 141.732 C 137.777 142.899,139.326 144.525,140.156 145.344 C 141.004 146.180,141.667 147.012,141.667 147.239 C 141.667 147.468,142.234 148.175,142.969 148.862 C 145.930 151.629,149.739 155.410,150.483 156.319 C 151.359 157.391,151.635 157.485,152.171 156.894 C 152.369 156.675,152.758 156.439,153.036 156.369 C 153.314 156.299,153.542 156.156,153.542 156.050 C 153.542 155.748,148.087 150.888,145.104 148.532 C 143.580 147.329,140.711 144.697,138.542 142.513 C 133.631 137.569,133.819 137.721,132.969 137.980 M129.485 140.333 C 127.540 140.843,125.872 141.336,125.779 141.430 C 125.502 141.706,125.978 143.396,127.065 146.001 C 127.625 147.341,128.372 149.178,128.727 150.082 C 129.473 151.988,130.879 153.943,131.536 153.990 C 132.643 154.068,134.335 153.713,138.333 152.564 C 139.672 152.179,142.917 150.478,142.917 150.162 C 142.917 150.042,142.446 149.481,141.872 148.916 L 140.827 147.887 138.716 148.638 C 136.080 149.575,136.160 149.519,136.571 150.146 C 137.049 150.876,136.744 151.101,135.049 151.271 C 134.277 151.349,133.246 151.481,132.758 151.566 C 131.288 151.822,128.623 147.749,127.534 143.580 L 127.188 142.253 127.813 141.753 C 128.652 141.081,130.615 141.032,131.250 141.667 C 131.808 142.224,134.163 141.842,134.166 141.193 C 134.167 141.052,133.108 139.350,133.045 139.391 C 133.032 139.400,131.430 139.824,129.485 140.333 M74.945 143.054 C 73.528 144.063,74.014 145.044,76.354 145.892 C 77.156 146.183,77.972 146.485,78.167 146.562 C 78.435 146.669,78.594 146.528,78.823 145.980 C 78.989 145.582,79.416 145.085,79.771 144.875 C 80.627 144.369,80.592 144.266,79.427 143.837 C 78.883 143.637,77.901 143.255,77.246 142.987 C 75.779 142.387,75.887 142.384,74.945 143.054 M128.698 142.725 C 128.181 143.026,128.188 143.050,129.688 146.154 C 130.432 147.695,131.044 149.027,131.048 149.114 C 131.051 149.200,131.341 149.587,131.693 149.974 L 132.332 150.676 133.979 150.581 C 135.889 150.470,136.009 150.403,135.544 149.694 C 135.220 149.199,135.092 149.167,133.438 149.167 C 131.393 149.167,131.538 149.311,130.390 146.139 C 129.663 144.128,129.701 143.987,131.016 143.810 C 132.039 143.673,132.224 143.039,131.341 142.703 C 130.650 142.441,129.165 142.453,128.698 142.725 M159.736 146.842 C 159.800 147.778,159.689 148.901,159.394 150.294 C 159.155 151.429,158.958 152.479,158.958 152.628 C 158.958 152.776,159.780 153.321,160.783 153.840 C 162.568 154.761,168.252 158.392,171.554 160.719 L 173.211 161.887 174.331 159.642 C 176.627 155.035,177.566 152.239,176.905 151.974 C 176.717 151.898,174.828 151.180,172.708 150.378 C 170.589 149.575,167.120 148.263,165.000 147.460 C 162.880 146.657,160.807 145.878,160.394 145.728 L 159.642 145.456 159.736 146.842 M179.665 156.501 C 179.645 158.820,179.684 159.176,179.916 158.837 C 180.362 158.186,180.889 157.708,181.162 157.708 C 181.303 157.708,181.516 157.427,181.635 157.083 C 181.900 156.323,182.068 156.312,183.129 156.982 C 184.361 157.759,184.134 157.448,182.656 156.334 C 181.940 155.794,180.979 154.995,180.521 154.559 L 179.688 153.766 179.665 156.501 M184.919 158.215 C 184.983 158.381,184.925 159.046,184.790 159.694 C 184.561 160.798,184.573 160.891,184.981 161.177 C 185.562 161.583,185.539 161.761,184.688 163.449 C 183.353 166.100,183.996 166.135,185.406 163.488 C 185.788 162.773,186.142 162.373,186.434 162.329 C 187.467 162.174,187.957 160.103,187.142 159.339 C 186.368 158.614,184.760 157.801,184.919 158.215 M187.701 163.022 C 186.984 164.262,186.979 164.290,186.971 166.875 C 186.966 168.433,186.861 169.715,186.711 170.066 C 186.572 170.388,186.458 170.765,186.458 170.902 C 186.458 171.292,185.632 172.743,184.997 173.470 C 184.680 173.832,184.022 174.957,183.535 175.970 C 183.047 176.984,182.613 177.876,182.571 177.954 C 182.343 178.371,182.954 178.234,183.764 177.686 C 184.272 177.342,185.139 176.827,185.690 176.541 C 186.293 176.229,186.865 175.729,187.125 175.289 C 187.720 174.280,187.884 174.588,187.917 176.771 C 187.953 179.188,187.519 180.475,186.137 182.042 C 185.542 182.717,185.284 183.130,185.524 183.024 C 185.751 182.923,186.424 182.802,187.018 182.756 L 188.099 182.671 188.241 183.471 C 188.319 183.911,188.566 185.056,188.789 186.017 C 189.117 187.425,189.154 187.949,188.981 188.725 C 188.863 189.254,188.519 190.859,188.216 192.292 C 187.914 193.724,187.475 195.436,187.242 196.096 C 186.779 197.404,186.785 197.663,187.384 202.188 C 187.817 205.457,188.287 208.014,188.659 209.122 C 188.824 209.613,188.958 210.726,188.958 211.596 L 188.958 213.178 189.773 213.048 C 190.222 212.976,190.761 212.862,190.971 212.794 C 191.245 212.705,191.206 212.792,190.833 213.098 C 190.547 213.333,190.054 213.584,189.738 213.655 C 188.189 214.002,188.560 215.213,190.172 215.071 C 193.186 214.807,193.556 213.583,192.383 207.751 C 191.657 204.136,190.970 195.076,190.998 189.479 C 191.002 188.677,191.023 186.143,191.045 183.848 C 191.066 181.554,190.978 178.975,190.848 178.119 C 190.718 177.263,190.436 174.781,190.221 172.604 C 189.895 169.305,189.334 165.853,188.562 162.397 L 188.422 161.773 187.701 163.022 "
              stroke="none" fill="#00000" fill-rule="evenodd"></path>
    </g>
</svg>